<svg class="main-svg" xmlns="http://www.w3.org/2000/svg" xmlns:xlink="http://www.w3.org/1999/xlink" width="1200" height="700" style="" viewBox="0 0 1200 700"><rect x="0" y="0" width="1200" height="700" style="fill: rgb(255, 255, 255); fill-opacity: 1;"/><defs id="defs-98e872"><g class="clips"><clipPath id="clip98e872polar-for-traces"><path d="M235,0A235,235 0,1,0 -235,-2.87791997799628e-14A235,235 0,1,0 235,5.75583995599256e-14Z" transform="translate(235,235)"/></clipPath></g><g class="gradients"/><g class="patterns"/></defs><g class="bglayer"/><g class="layer-below"><g class="imagelayer"/><g class="shapelayer"/></g><g class="cartesianlayer"/><g class="polarlayer"><g class="polar"><g class="polarsublayer draglayer"/><g class="polarsublayer plotbg"><path d="M235,0A235,235 0,1,0 -235,-2.87791997799628e-14A235,235 0,1,0 235,5.75583995599256e-14Z" transform="translate(548,385)" style="fill: rgb(229, 236, 246); fill-opacity: 1;"/></g><g class="polarsublayer backplot"><g class="maplayer"/></g><g class="polarsublayer angular-grid" style="fill: none;"><path class="angularaxisgrid" d="M548,385L783,385" style="stroke: rgb(255, 255, 255); stroke-opacity: 1; stroke-width: 1px;"/><path class="angularaxisgrid" d="M548,385L751.5159698893431,267.5" style="stroke: rgb(255, 255, 255); stroke-opacity: 1; stroke-width: 1px;"/><path class="angularaxisgrid" d="M548,385L665.5,181.48403011065693" style="stroke: rgb(255, 255, 255); stroke-opacity: 1; stroke-width: 1px;"/><path class="angularaxisgrid" d="M548,385L548,150" style="stroke: rgb(255, 255, 255); stroke-opacity: 1; stroke-width: 1px;"/><path class="angularaxisgrid" d="M548,385L430.50000000000006,181.4840301106569" style="stroke: rgb(255, 255, 255); stroke-opacity: 1; stroke-width: 1px;"/><path class="angularaxisgrid" d="M548,385L344.48403011065693,267.5" style="stroke: rgb(255, 255, 255); stroke-opacity: 1; stroke-width: 1px;"/><path class="angularaxisgrid" d="M548,385L313,384.99999999999994" style="stroke: rgb(255, 255, 255); stroke-opacity: 1; stroke-width: 1px;"/><path class="angularaxisgrid" d="M548,385L344.4840301106569,502.49999999999994" style="stroke: rgb(255, 255, 255); stroke-opacity: 1; stroke-width: 1px;"/><path class="angularaxisgrid" d="M548,385L430.4999999999999,588.5159698893431" style="stroke: rgb(255, 255, 255); stroke-opacity: 1; stroke-width: 1px;"/><path class="angularaxisgrid" d="M548,385L548,620" style="stroke: rgb(255, 255, 255); stroke-opacity: 1; stroke-width: 1px;"/><path class="angularaxisgrid" d="M548,385L665.5,588.5159698893431" style="stroke: rgb(255, 255, 255); stroke-opacity: 1; stroke-width: 1px;"/><path class="angularaxisgrid" d="M548,385L751.5159698893431,502.5000000000001" style="stroke: rgb(255, 255, 255); stroke-opacity: 1; stroke-width: 1px;"/></g><g class="polarsublayer radial-grid" transform="translate(548,385)" style="fill: none;"><path class="xgrid" d="M47,0A47,47 0,1,0 -47,-5.75583995599256e-15A47,47 0,1,0 47,1.151167991198512e-14Z" style="stroke: rgb(255, 255, 255); stroke-opacity: 1; stroke-width: 1px;"/><path class="xgrid" d="M94,0A94,94 0,1,0 -94,-1.151167991198512e-14A94,94 0,1,0 94,2.302335982397024e-14Z" style="stroke: rgb(255, 255, 255); stroke-opacity: 1; stroke-width: 1px;"/><path class="xgrid" d="M141,0A141,141 0,1,0 -141,-1.726751986797768e-14A141,141 0,1,0 141,3.453503973595536e-14Z" style="stroke: rgb(255, 255, 255); stroke-opacity: 1; stroke-width: 1px;"/><path class="xgrid" d="M188,0A188,188 0,1,0 -188,-2.302335982397024e-14A188,188 0,1,0 188,4.604671964794048e-14Z" style="stroke: rgb(255, 255, 255); stroke-opacity: 1; stroke-width: 1px;"/></g><g class="polarsublayer frontplot" transform="translate(313,150)"><g class="barlayer"/><g class="scatterlayer"><g class="trace scatter trace98cae7" style="stroke-miterlimit: 2; opacity: 1;"><g class="fills" clip-path="url(#clip98e872polar-for-traces)"><g><path class="js-fill" d="M235,235L235,235L242.47,222.06L235,201.43L235,235L235,235L0,235L235,235L117.5,438.52L235,235L235,235L438.52,352.5L235,235Z" style="fill: rgb(0, 128, 0); fill-opacity: 0.5; stroke-width: 0;"/></g></g><g class="errorbars"/><g class="lines"><path class="js-line" d="M235,235L235,235L242.47,222.06L235,201.43L235,235L235,235L0,235L235,235L117.5,438.52L235,235L235,235L438.52,352.5L235,235" clip-path="url(#clip98e872polar-for-traces)" style="vector-effect: none; fill: none; stroke: rgb(0, 128, 0); stroke-opacity: 1; stroke-width: 2px; opacity: 1;"/></g><g class="points"><path class="point" transform="translate(235,235)" d="M3,0A3,3 0 1,1 0,-3A3,3 0 0,1 3,0Z" style="opacity: 1; stroke-width: 0px; fill: rgb(0, 128, 0); fill-opacity: 1;"/><path class="point" transform="translate(235,235)" d="M3,0A3,3 0 1,1 0,-3A3,3 0 0,1 3,0Z" style="opacity: 1; stroke-width: 0px; fill: rgb(0, 128, 0); fill-opacity: 1;"/><path class="point" transform="translate(242.47,222.06)" d="M3,0A3,3 0 1,1 0,-3A3,3 0 0,1 3,0Z" style="opacity: 1; stroke-width: 0px; fill: rgb(0, 128, 0); fill-opacity: 1;"/><path class="point" transform="translate(235,201.43)" d="M3,0A3,3 0 1,1 0,-3A3,3 0 0,1 3,0Z" style="opacity: 1; stroke-width: 0px; fill: rgb(0, 128, 0); fill-opacity: 1;"/><path class="point" transform="translate(235,235)" d="M3,0A3,3 0 1,1 0,-3A3,3 0 0,1 3,0Z" style="opacity: 1; stroke-width: 0px; fill: rgb(0, 128, 0); fill-opacity: 1;"/><path class="point" transform="translate(235,235)" d="M3,0A3,3 0 1,1 0,-3A3,3 0 0,1 3,0Z" style="opacity: 1; stroke-width: 0px; fill: rgb(0, 128, 0); fill-opacity: 1;"/><path class="point" transform="translate(0,235)" d="M3,0A3,3 0 1,1 0,-3A3,3 0 0,1 3,0Z" style="opacity: 1; stroke-width: 0px; fill: rgb(0, 128, 0); fill-opacity: 1;"/><path class="point" transform="translate(235,235)" d="M3,0A3,3 0 1,1 0,-3A3,3 0 0,1 3,0Z" style="opacity: 1; stroke-width: 0px; fill: rgb(0, 128, 0); fill-opacity: 1;"/><path class="point" transform="translate(117.5,438.52)" d="M3,0A3,3 0 1,1 0,-3A3,3 0 0,1 3,0Z" style="opacity: 1; stroke-width: 0px; fill: rgb(0, 128, 0); fill-opacity: 1;"/><path class="point" transform="translate(235,235)" d="M3,0A3,3 0 1,1 0,-3A3,3 0 0,1 3,0Z" style="opacity: 1; stroke-width: 0px; fill: rgb(0, 128, 0); fill-opacity: 1;"/><path class="point" transform="translate(235,235)" d="M3,0A3,3 0 1,1 0,-3A3,3 0 0,1 3,0Z" style="opacity: 1; stroke-width: 0px; fill: rgb(0, 128, 0); fill-opacity: 1;"/><path class="point" transform="translate(438.52,352.5)" d="M3,0A3,3 0 1,1 0,-3A3,3 0 0,1 3,0Z" style="opacity: 1; stroke-width: 0px; fill: rgb(0, 128, 0); fill-opacity: 1;"/><path class="point" transform="translate(235,235)" d="M3,0A3,3 0 1,1 0,-3A3,3 0 0,1 3,0Z" style="opacity: 1; stroke-width: 0px; fill: rgb(0, 128, 0); fill-opacity: 1;"/></g><g class="text"/></g><g class="trace scatter trace9b1f3e" style="stroke-miterlimit: 2; opacity: 1;"><g class="fills" clip-path="url(#clip98e872polar-for-traces)"><g><path class="js-fill" d="M271.33,235L370.68,156.67L352.5,31.48L235,0L117.5,31.48L232.22,233.4L235,235L129.06,296.16L220.12,260.77L235,436.73L308.91,363.01L324.65,286.76L271.33,235Z" style="fill: rgb(255, 165, 0); fill-opacity: 0.5; stroke-width: 0;"/></g></g><g class="errorbars"/><g class="lines"><path class="js-line" d="M271.33,235L370.68,156.67L352.5,31.48L235,0L117.5,31.48L232.22,233.4L235,235L129.06,296.16L220.12,260.77L235,436.73L308.91,363.01L324.65,286.76L271.33,235" clip-path="url(#clip98e872polar-for-traces)" style="vector-effect: none; fill: none; stroke: rgb(255, 165, 0); stroke-opacity: 1; stroke-width: 2px; opacity: 1;"/></g><g class="points"><path class="point" transform="translate(271.33,235)" d="M3,0A3,3 0 1,1 0,-3A3,3 0 0,1 3,0Z" style="opacity: 1; stroke-width: 0px; fill: rgb(255, 165, 0); fill-opacity: 1;"/><path class="point" transform="translate(370.68,156.67)" d="M3,0A3,3 0 1,1 0,-3A3,3 0 0,1 3,0Z" style="opacity: 1; stroke-width: 0px; fill: rgb(255, 165, 0); fill-opacity: 1;"/><path class="point" transform="translate(352.5,31.48)" d="M3,0A3,3 0 1,1 0,-3A3,3 0 0,1 3,0Z" style="opacity: 1; stroke-width: 0px; fill: rgb(255, 165, 0); fill-opacity: 1;"/><path class="point" transform="translate(235,0)" d="M3,0A3,3 0 1,1 0,-3A3,3 0 0,1 3,0Z" style="opacity: 1; stroke-width: 0px; fill: rgb(255, 165, 0); fill-opacity: 1;"/><path class="point" transform="translate(117.5,31.48)" d="M3,0A3,3 0 1,1 0,-3A3,3 0 0,1 3,0Z" style="opacity: 1; stroke-width: 0px; fill: rgb(255, 165, 0); fill-opacity: 1;"/><path class="point" transform="translate(232.22,233.4)" d="M3,0A3,3 0 1,1 0,-3A3,3 0 0,1 3,0Z" style="opacity: 1; stroke-width: 0px; fill: rgb(255, 165, 0); fill-opacity: 1;"/><path class="point" transform="translate(235,235)" d="M3,0A3,3 0 1,1 0,-3A3,3 0 0,1 3,0Z" style="opacity: 1; stroke-width: 0px; fill: rgb(255, 165, 0); fill-opacity: 1;"/><path class="point" transform="translate(129.06,296.16)" d="M3,0A3,3 0 1,1 0,-3A3,3 0 0,1 3,0Z" style="opacity: 1; stroke-width: 0px; fill: rgb(255, 165, 0); fill-opacity: 1;"/><path class="point" transform="translate(220.12,260.77)" d="M3,0A3,3 0 1,1 0,-3A3,3 0 0,1 3,0Z" style="opacity: 1; stroke-width: 0px; fill: rgb(255, 165, 0); fill-opacity: 1;"/><path class="point" transform="translate(235,436.73)" d="M3,0A3,3 0 1,1 0,-3A3,3 0 0,1 3,0Z" style="opacity: 1; stroke-width: 0px; fill: rgb(255, 165, 0); fill-opacity: 1;"/><path class="point" transform="translate(308.91,363.01)" d="M3,0A3,3 0 1,1 0,-3A3,3 0 0,1 3,0Z" style="opacity: 1; stroke-width: 0px; fill: rgb(255, 165, 0); fill-opacity: 1;"/><path class="point" transform="translate(324.65,286.76)" d="M3,0A3,3 0 1,1 0,-3A3,3 0 0,1 3,0Z" style="opacity: 1; stroke-width: 0px; fill: rgb(255, 165, 0); fill-opacity: 1;"/><path class="point" transform="translate(271.33,235)" d="M3,0A3,3 0 1,1 0,-3A3,3 0 0,1 3,0Z" style="opacity: 1; stroke-width: 0px; fill: rgb(255, 165, 0); fill-opacity: 1;"/></g><g class="text"/></g><g class="trace scatter trace73d242" style="stroke-miterlimit: 2; opacity: 1;"><g class="fills" clip-path="url(#clip98e872polar-for-traces)"><g><path class="js-fill" d="M470,235L438.52,117.5L235,235L235,235L227.66,222.28L31.48,117.5L235,235L31.48,352.5L235,235L235,470L352.5,438.52L235,235L470,235Z" style="fill: rgb(255, 0, 0); fill-opacity: 0.5; stroke-width: 0;"/></g></g><g class="errorbars"/><g class="lines"><path class="js-line" d="M470,235L438.52,117.5L235,235L235,235L227.66,222.28L31.48,117.5L235,235L31.48,352.5L235,235L235,470L352.5,438.52L235,235L470,235" clip-path="url(#clip98e872polar-for-traces)" style="vector-effect: none; fill: none; stroke: rgb(255, 0, 0); stroke-opacity: 1; stroke-width: 2px; opacity: 1;"/></g><g class="points"><path class="point" transform="translate(470,235)" d="M3,0A3,3 0 1,1 0,-3A3,3 0 0,1 3,0Z" style="opacity: 1; stroke-width: 0px; fill: rgb(255, 0, 0); fill-opacity: 1;"/><path class="point" transform="translate(438.52,117.5)" d="M3,0A3,3 0 1,1 0,-3A3,3 0 0,1 3,0Z" style="opacity: 1; stroke-width: 0px; fill: rgb(255, 0, 0); fill-opacity: 1;"/><path class="point" transform="translate(235,235)" d="M3,0A3,3 0 1,1 0,-3A3,3 0 0,1 3,0Z" style="opacity: 1; stroke-width: 0px; fill: rgb(255, 0, 0); fill-opacity: 1;"/><path class="point" transform="translate(235,235)" d="M3,0A3,3 0 1,1 0,-3A3,3 0 0,1 3,0Z" style="opacity: 1; stroke-width: 0px; fill: rgb(255, 0, 0); fill-opacity: 1;"/><path class="point" transform="translate(227.66,222.28)" d="M3,0A3,3 0 1,1 0,-3A3,3 0 0,1 3,0Z" style="opacity: 1; stroke-width: 0px; fill: rgb(255, 0, 0); fill-opacity: 1;"/><path class="point" transform="translate(31.48,117.5)" d="M3,0A3,3 0 1,1 0,-3A3,3 0 0,1 3,0Z" style="opacity: 1; stroke-width: 0px; fill: rgb(255, 0, 0); fill-opacity: 1;"/><path class="point" transform="translate(235,235)" d="M3,0A3,3 0 1,1 0,-3A3,3 0 0,1 3,0Z" style="opacity: 1; stroke-width: 0px; fill: rgb(255, 0, 0); fill-opacity: 1;"/><path class="point" transform="translate(31.48,352.5)" d="M3,0A3,3 0 1,1 0,-3A3,3 0 0,1 3,0Z" style="opacity: 1; stroke-width: 0px; fill: rgb(255, 0, 0); fill-opacity: 1;"/><path class="point" transform="translate(235,235)" d="M3,0A3,3 0 1,1 0,-3A3,3 0 0,1 3,0Z" style="opacity: 1; stroke-width: 0px; fill: rgb(255, 0, 0); fill-opacity: 1;"/><path class="point" transform="translate(235,470)" d="M3,0A3,3 0 1,1 0,-3A3,3 0 0,1 3,0Z" style="opacity: 1; stroke-width: 0px; fill: rgb(255, 0, 0); fill-opacity: 1;"/><path class="point" transform="translate(352.5,438.52)" d="M3,0A3,3 0 1,1 0,-3A3,3 0 0,1 3,0Z" style="opacity: 1; stroke-width: 0px; fill: rgb(255, 0, 0); fill-opacity: 1;"/><path class="point" transform="translate(235,235)" d="M3,0A3,3 0 1,1 0,-3A3,3 0 0,1 3,0Z" style="opacity: 1; stroke-width: 0px; fill: rgb(255, 0, 0); fill-opacity: 1;"/><path class="point" transform="translate(470,235)" d="M3,0A3,3 0 1,1 0,-3A3,3 0 0,1 3,0Z" style="opacity: 1; stroke-width: 0px; fill: rgb(255, 0, 0); fill-opacity: 1;"/></g><g class="text"/></g></g></g><g class="polarsublayer angular-line"><path d="M235,0A235,235 0,1,0 -235,-2.87791997799628e-14A235,235 0,1,0 235,5.75583995599256e-14Z" transform="translate(548,385)" stroke-width="1" style="fill: none; stroke: rgb(255, 255, 255); stroke-opacity: 1;"/></g><g class="polarsublayer radial-line"><line x1="0" y1="0" x2="235" y2="0" transform="translate(548,385)" stroke-width="1" style="fill: none; stroke: rgb(255, 255, 255); stroke-opacity: 1;"/></g><g class="polarsublayer angular-axis"><g class="angularaxistick"><text text-anchor="start" x="2.9000000000000004" y="4.199999999999999" transform="translate(783,385)" style="font-family: 'Open Sans', verdana, arial, sans-serif; font-size: 12px; fill: rgb(42, 63, 95); fill-opacity: 1; white-space: pre;">num_of_unique_IPs_used</text></g><g class="angularaxistick"><text text-anchor="start" x="2.5114736709748726" y="0.9873066958946422" transform="translate(751.5159698893431,267.5)" style="font-family: 'Open Sans', verdana, arial, sans-serif; font-size: 12px; fill: rgb(42, 63, 95); fill-opacity: 1; white-space: pre;">login_count</text></g><g class="angularaxistick"><text text-anchor="start" x="1.4500000000000004" y="-2.4899346400575255" transform="translate(665.5,181.48403011065693)" style="font-family: 'Open Sans', verdana, arial, sans-serif; font-size: 12px; fill: rgb(42, 63, 95); fill-opacity: 1; white-space: pre;">num_of_frequent_operations</text></g><g class="angularaxistick"><text text-anchor="middle" x="1.7757378587636624e-16" y="-5.300000000000001" transform="translate(548,150)" style="font-family: 'Open Sans', verdana, arial, sans-serif; font-size: 12px; fill: rgb(42, 63, 95); fill-opacity: 1; white-space: pre;">c2c_place_order_count</text></g><g class="angularaxistick"><text text-anchor="end" x="-1.4499999999999995" y="-2.489934640057527" transform="translate(430.50000000000006,181.4840301106569)" style="font-family: 'Open Sans', verdana, arial, sans-serif; font-size: 12px; fill: rgb(42, 63, 95); fill-opacity: 1; white-space: pre;">c2c_release_order_count</text></g><g class="angularaxistick"><text text-anchor="end" x="-2.5114736709748726" y="0.9873066958946422" transform="translate(344.48403011065693,267.5)" style="font-family: 'Open Sans', verdana, arial, sans-serif; font-size: 12px; fill: rgb(42, 63, 95); fill-opacity: 1; white-space: pre;">gift_card_created_amount</text></g><g class="angularaxistick"><text text-anchor="end" x="-2.9000000000000004" y="4.199999999999998" transform="translate(313,384.99999999999994)" style="font-family: 'Open Sans', verdana, arial, sans-serif; font-size: 12px; fill: rgb(42, 63, 95); fill-opacity: 1; white-space: pre;">gift_card_redeemed_amount</text></g><g class="angularaxistick"><text text-anchor="end" x="-2.511473670974873" y="11.087306695894638" transform="translate(344.4840301106569,502.49999999999994)" style="font-family: 'Open Sans', verdana, arial, sans-serif; font-size: 12px; fill: rgb(42, 63, 95); fill-opacity: 1; white-space: pre;">amount</text></g><g class="angularaxistick"><text text-anchor="end" x="-1.4500000000000015" y="15.003778516388133" transform="translate(430.4999999999999,588.5159698893431)" style="font-family: 'Open Sans', verdana, arial, sans-serif; font-size: 12px; fill: rgb(42, 63, 95); fill-opacity: 1; white-space: pre;">wallet_balance</text></g><g class="angularaxistick"><text text-anchor="middle" x="-5.327213576290987e-16" y="14.9" transform="translate(548,620)" style="font-family: 'Open Sans', verdana, arial, sans-serif; font-size: 12px; fill: rgb(42, 63, 95); fill-opacity: 1; white-space: pre;">wallet_free_balance</text></g><g class="angularaxistick"><text text-anchor="start" x="1.4500000000000004" y="15.003778516388135" transform="translate(665.5,588.5159698893431)" style="font-family: 'Open Sans', verdana, arial, sans-serif; font-size: 12px; fill: rgb(42, 63, 95); fill-opacity: 1; white-space: pre;">wallet_locked_balance</text></g><g class="angularaxistick"><text text-anchor="start" x="2.5114736709748717" y="11.087306695894647" transform="translate(751.5159698893431,502.5000000000001)" style="font-family: 'Open Sans', verdana, arial, sans-serif; font-size: 12px; fill: rgb(42, 63, 95); fill-opacity: 1; white-space: pre;">account_age_days</text></g></g><g class="polarsublayer radial-axis" transform="translate(548,385)"><g class="xtick"><text text-anchor="middle" x="0" y="14.9" transform="" style="font-family: 'Open Sans', verdana, arial, sans-serif; font-size: 12px; fill: rgb(42, 63, 95); fill-opacity: 1; white-space: pre;">0</text></g><g class="xtick"><text text-anchor="middle" x="0" y="14.9" transform="translate(47,0)" style="font-family: 'Open Sans', verdana, arial, sans-serif; font-size: 12px; fill: rgb(42, 63, 95); fill-opacity: 1; white-space: pre;">0.2</text></g><g class="xtick"><text text-anchor="middle" x="0" y="14.9" transform="translate(94,0)" style="font-family: 'Open Sans', verdana, arial, sans-serif; font-size: 12px; fill: rgb(42, 63, 95); fill-opacity: 1; white-space: pre;">0.4</text></g><g class="xtick"><text text-anchor="middle" x="0" y="14.9" transform="translate(141,0)" style="font-family: 'Open Sans', verdana, arial, sans-serif; font-size: 12px; fill: rgb(42, 63, 95); fill-opacity: 1; white-space: pre;">0.6</text></g><g class="xtick"><text text-anchor="middle" x="0" y="14.9" transform="translate(188,0)" style="font-family: 'Open Sans', verdana, arial, sans-serif; font-size: 12px; fill: rgb(42, 63, 95); fill-opacity: 1; white-space: pre;">0.8</text></g><g class="xtick"><text text-anchor="middle" x="0" y="14.9" transform="translate(235,0)" style="font-family: 'Open Sans', verdana, arial, sans-serif; font-size: 12px; fill: rgb(42, 63, 95); fill-opacity: 1; white-space: pre;">1</text></g></g></g></g><g class="smithlayer"/><g class="ternarylayer"/><g class="geolayer"/><g class="funnelarealayer"/><g class="pielayer"/><g class="iciclelayer"/><g class="treemaplayer"/><g class="sunburstlayer"/><g class="glimages"/><defs id="topdefs-98e872"><g class="clips"/><clipPath id="legend98e872"><rect width="153" height="86" x="0" y="0"/></clipPath></defs><g class="layer-above"><g class="imagelayer"/><g class="shapelayer"/></g><g class="infolayer"><g class="legend" pointer-events="all" transform="translate(1034.72,150)"><rect class="bg" shape-rendering="crispEdges" style="stroke: rgb(68, 68, 68); stroke-opacity: 1; fill: rgb(255, 255, 255); fill-opacity: 1; stroke-width: 0px;" width="153" height="86" x="0" y="0"/><g class="scrollbox" transform="" clip-path="url(#legend98e872)"><text class="legendtitletext" text-anchor="start" x="2" y="18.2" style="font-family: 'Open Sans', verdana, arial, sans-serif; font-size: 14px; fill: rgb(42, 63, 95); fill-opacity: 1; white-space: pre;"><tspan style="font-weight:bold">Transaction Status</tspan></text><g class="groups"><g class="traces" transform="translate(0,32.7)" style="opacity: 1;"><text class="legendtext" text-anchor="start" x="40" y="4.680000000000001" style="font-family: 'Open Sans', verdana, arial, sans-serif; font-size: 12px; fill: rgb(42, 63, 95); fill-opacity: 1; white-space: pre;">Normal</text><g class="layers" style="opacity: 1;"><g class="legendfill"><path class="js-fill" d="M5,0h30v6h-30z" style="stroke-width: 0; fill: rgb(0, 128, 0); fill-opacity: 0.5;"/></g><g class="legendlines"><path class="js-line" d="M5,0h30" style="fill: none; stroke: rgb(0, 128, 0); stroke-opacity: 1; stroke-width: 2px;"/></g><g class="legendsymbols"><g class="legendpoints"><path class="scatterpts" transform="translate(20,0)" d="M3,0A3,3 0 1,1 0,-3A3,3 0 0,1 3,0Z" style="opacity: 1; stroke-width: 0px; fill: rgb(0, 128, 0); fill-opacity: 1;"/></g></g></g><rect class="legendtoggle" x="0" y="-9.5" width="108.12890625" height="19" style="fill: rgb(0, 0, 0); fill-opacity: 0;"/></g><g class="traces" transform="translate(0,51.7)" style="opacity: 1;"><text class="legendtext" text-anchor="start" x="40" y="4.680000000000001" style="font-family: 'Open Sans', verdana, arial, sans-serif; font-size: 12px; fill: rgb(42, 63, 95); fill-opacity: 1; white-space: pre;">Anomalous</text><g class="layers" style="opacity: 1;"><g class="legendfill"><path class="js-fill" d="M5,0h30v6h-30z" style="stroke-width: 0; fill: rgb(255, 165, 0); fill-opacity: 0.5;"/></g><g class="legendlines"><path class="js-line" d="M5,0h30" style="fill: none; stroke: rgb(255, 165, 0); stroke-opacity: 1; stroke-width: 2px;"/></g><g class="legendsymbols"><g class="legendpoints"><path class="scatterpts" transform="translate(20,0)" d="M3,0A3,3 0 1,1 0,-3A3,3 0 0,1 3,0Z" style="opacity: 1; stroke-width: 0px; fill: rgb(255, 165, 0); fill-opacity: 1;"/></g></g></g><rect class="legendtoggle" x="0" y="-9.5" width="108.12890625" height="19" style="fill: rgb(0, 0, 0); fill-opacity: 0;"/></g><g class="traces" transform="translate(0,70.7)" style="opacity: 1;"><text class="legendtext" text-anchor="start" x="40" y="4.680000000000001" style="font-family: 'Open Sans', verdana, arial, sans-serif; font-size: 12px; fill: rgb(42, 63, 95); fill-opacity: 1; white-space: pre;">Fraudulent</text><g class="layers" style="opacity: 1;"><g class="legendfill"><path class="js-fill" d="M5,0h30v6h-30z" style="stroke-width: 0; fill: rgb(255, 0, 0); fill-opacity: 0.5;"/></g><g class="legendlines"><path class="js-line" d="M5,0h30" style="fill: none; stroke: rgb(255, 0, 0); stroke-opacity: 1; stroke-width: 2px;"/></g><g class="legendsymbols"><g class="legendpoints"><path class="scatterpts" transform="translate(20,0)" d="M3,0A3,3 0 1,1 0,-3A3,3 0 0,1 3,0Z" style="opacity: 1; stroke-width: 0px; fill: rgb(255, 0, 0); fill-opacity: 1;"/></g></g></g><rect class="legendtoggle" x="0" y="-9.5" width="108.12890625" height="19" style="fill: rgb(0, 0, 0); fill-opacity: 0;"/></g></g></g><rect class="scrollbar" rx="20" ry="3" width="0" height="0" style="fill: rgb(128, 139, 164); fill-opacity: 1;" x="0" y="0"/></g><g class="g-gtitle"><text class="gtitle" x="36" y="35" text-anchor="start" dy="0.7em" style="opacity: 1; font-family: Poppins; font-size: 30px; fill: rgb(34, 34, 34); fill-opacity: 1; white-space: pre;"><tspan class="line" dy="0em" x="36" y="35"><tspan style="font-weight:bold">Comparison of User Behavior Across Transaction Types</tspan></tspan><tspan class="line" dy="1.3em" x="36" y="35"></tspan></text></g><g class="g-polartitle"/><g class="annotation" data-index="0" style="opacity: 1;"><g class="annotation-text-g" transform="rotate(0,690.92,68.60000000000005)"><g class="cursor-pointer" transform="translate(52,47)"><rect class="bg" x="0.5" y="0.5" width="1277" height="43" style="stroke-width: 1px; stroke: rgb(0, 0, 0); stroke-opacity: 0; fill: rgb(0, 0, 0); fill-opacity: 0;"/><text class="annotation-text" text-anchor="middle" x="639.3984375" y="18" style="font-family: 'Open Sans', verdana, arial, sans-serif; font-size: 16px; fill: rgb(0, 0, 0); fill-opacity: 1; white-space: pre;"><tspan class="line" dy="0em" x="639.3984375" y="18">This radar chart compares average user behavior for different transaction types (Normal, Anomalous, Fraudulent). The features show key activity metrics like</tspan><tspan class="line" dy="1.3em" x="639.3984375" y="18">account age, wallet balance, login frequency, and gift card usage.</tspan></text></g></g></g><g class="annotation" data-index="1" style="opacity: 1;"><g class="annotation-text-g" transform="rotate(0,548,665.9000000000001)"><g class="cursor-pointer" transform="translate(-57,655)"><rect class="bg" x="0.5" y="0.5" width="1210" height="20" style="stroke-width: 1px; stroke: rgb(0, 0, 0); stroke-opacity: 0; fill: rgb(0, 0, 0); fill-opacity: 0;"/><text class="annotation-text" text-anchor="middle" x="606.203125" y="16" style="font-family: 'Open Sans', verdana, arial, sans-serif; font-size: 14px; fill: rgb(128, 128, 128); fill-opacity: 1; white-space: pre;">This chart shows the relative behavior of users based on various features (e.g., wallet balance, login count, gift card usage). Features are normalized for easy comparison.</text></g></g></g></g></svg>