<svg class="main-svg" xmlns="http://www.w3.org/2000/svg" xmlns:xlink="http://www.w3.org/1999/xlink" width="1200" height="600" style="" viewBox="0 0 1200 600"><rect x="0" y="0" width="1200" height="600" style="fill: rgb(255, 255, 255); fill-opacity: 1;"/><defs id="defs-5d4feb"><g class="clips"/><g class="gradients"/><g class="patterns"/></defs><g class="bglayer"/><g class="layer-below"><g class="imagelayer"/><g class="shapelayer"/></g><g class="cartesianlayer"/><g class="polarlayer"/><g class="smithlayer"/><g class="ternarylayer"/><g class="geolayer"/><g class="funnelarealayer"/><g class="pielayer"><g class="trace" stroke-linejoin="round" style="opacity: 1;"><g class="slice"><path class="surface" d="M236.95999999999998,251.52470588235295a61.552941176470576,61.552941176470576 0 1 0 7.538061238987e-15,123.10588235294115a61.552941176470576,61.552941176470576 0 1 0 -7.538061238987e-15,-123.10588235294115ZM236.95999999999998,159.19529411764708a153.88235294117644,153.88235294117644 0 1 1 1.8845153097467502e-14,307.76470588235287a153.88235294117644,153.88235294117644 0 1 1 -1.8845153097467502e-14,-307.76470588235287Z" style="pointer-events: none; fill: rgb(189, 224, 254); fill-opacity: 1; stroke-width: 0; stroke: rgb(68, 68, 68); stroke-opacity: 1;"/><g class="slicetext"><text data-notex="1" class="slicetext" transform="translate(236.95999999999998,417.193731617647)" text-anchor="middle" x="0" y="0" style="font-family: 'Open Sans', verdana, arial, sans-serif; font-size: 14px; fill: rgb(0, 0, 0); fill-opacity: 1; white-space: pre;"><tspan class="line" dy="0em" x="0" y="0">Completed</tspan><tspan class="line" dy="1.3em" x="0" y="0">100%</tspan></text></g></g></g><g class="trace" stroke-linejoin="round" style="opacity: 1;"><g class="slice"><path class="surface" d="M570.5,251.52470588235295a61.552941176470576,61.552941176470576 0 1 0 7.538061238987e-15,123.10588235294115a61.552941176470576,61.552941176470576 0 1 0 -7.538061238987e-15,-123.10588235294115ZM570.5,159.19529411764708a153.88235294117644,153.88235294117644 0 1 1 1.8845153097467502e-14,307.76470588235287a153.88235294117644,153.88235294117644 0 1 1 -1.8845153097467502e-14,-307.76470588235287Z" style="pointer-events: none; fill: rgb(189, 224, 254); fill-opacity: 1; stroke-width: 0; stroke: rgb(68, 68, 68); stroke-opacity: 1;"/><g class="slicetext"><text data-notex="1" class="slicetext" transform="translate(570.5,417.193731617647)" text-anchor="middle" x="0" y="0" style="font-family: 'Open Sans', verdana, arial, sans-serif; font-size: 14px; fill: rgb(0, 0, 0); fill-opacity: 1; white-space: pre;"><tspan class="line" dy="0em" x="0" y="0">Completed</tspan><tspan class="line" dy="1.3em" x="0" y="0">100%</tspan></text></g></g></g><g class="trace" stroke-linejoin="round" style="opacity: 1;"><g class="slice"><path class="surface" d="M904.0399999999998,251.52470588235295a61.552941176470576,61.552941176470576 0 1 0 7.538061238987e-15,123.10588235294115a61.552941176470576,61.552941176470576 0 1 0 -7.538061238987e-15,-123.10588235294115ZM904.0399999999998,159.19529411764708a153.88235294117644,153.88235294117644 0 1 1 1.8845153097467502e-14,307.76470588235287a153.88235294117644,153.88235294117644 0 1 1 -1.8845153097467502e-14,-307.76470588235287Z" style="pointer-events: none; fill: rgb(251, 111, 146); fill-opacity: 1; stroke-width: 0; stroke: rgb(68, 68, 68); stroke-opacity: 1;"/><g class="slicetext"><text data-notex="1" class="slicetext" transform="translate(903.8368749999998,417.193731617647)" text-anchor="middle" x="0" y="0" style="font-family: 'Open Sans', verdana, arial, sans-serif; font-size: 14px; fill: rgb(0, 0, 0); fill-opacity: 1; white-space: pre;"><tspan class="line" dy="0em" x="0" y="0">Pending</tspan><tspan class="line" dy="1.3em" x="0" y="0">100%</tspan></text></g></g></g></g><g class="iciclelayer"/><g class="treemaplayer"/><g class="sunburstlayer"/><g class="glimages"/><defs id="topdefs-5d4feb"><g class="clips"/><clipPath id="legend5d4feb"><rect width="107" height="67" x="0" y="0"/></clipPath></defs><g class="layer-above"><g class="imagelayer"/><g class="shapelayer"/></g><g class="infolayer"><g class="legend" pointer-events="all" transform="translate(1080.62,100)"><rect class="bg" shape-rendering="crispEdges" style="stroke: rgb(68, 68, 68); stroke-opacity: 1; fill: rgb(255, 255, 255); fill-opacity: 1; stroke-width: 0px;" width="107" height="67" x="0" y="0"/><g class="scrollbox" transform="" clip-path="url(#legend5d4feb)"><text class="legendtitletext" text-anchor="start" x="2" y="18.2" style="font-family: 'Open Sans', verdana, arial, sans-serif; font-size: 14px; fill: rgb(42, 63, 95); fill-opacity: 1; white-space: pre;"><tspan style="font-weight:bold">Deposit Status</tspan></text><g class="groups"><g class="traces" transform="translate(0,32.7)" style="opacity: 1;"><text class="legendtext" text-anchor="start" x="40" y="4.680000000000001" style="font-family: 'Open Sans', verdana, arial, sans-serif; font-size: 12px; fill: rgb(42, 63, 95); fill-opacity: 1; white-space: pre;">Completed</text><g class="layers" style="opacity: 1;"><g class="legendfill"/><g class="legendlines"/><g class="legendsymbols"><g class="legendpoints"><path class="legendpie" d="M6,6H-6V-6H6Z" transform="translate(20,0)" style="fill: rgb(189, 224, 254); fill-opacity: 1; stroke-width: 0; stroke: rgb(68, 68, 68); stroke-opacity: 1;"/></g></g></g><rect class="legendtoggle" x="0" y="-9.5" width="101.359375" height="19" style="fill: rgb(0, 0, 0); fill-opacity: 0;"/></g><g class="traces" transform="translate(0,51.7)" style="opacity: 1;"><text class="legendtext" text-anchor="start" x="40" y="4.680000000000001" style="font-family: 'Open Sans', verdana, arial, sans-serif; font-size: 12px; fill: rgb(42, 63, 95); fill-opacity: 1; white-space: pre;">Pending</text><g class="layers" style="opacity: 1;"><g class="legendfill"/><g class="legendlines"/><g class="legendsymbols"><g class="legendpoints"><path class="legendpie" d="M6,6H-6V-6H6Z" transform="translate(20,0)" style="fill: rgb(251, 111, 146); fill-opacity: 1; stroke-width: 0; stroke: rgb(68, 68, 68); stroke-opacity: 1;"/></g></g></g><rect class="legendtoggle" x="0" y="-9.5" width="101.359375" height="19" style="fill: rgb(0, 0, 0); fill-opacity: 0;"/></g></g></g><rect class="scrollbar" rx="20" ry="3" width="0" height="0" style="fill: rgb(128, 139, 164); fill-opacity: 1;" x="0" y="0"/></g><g class="g-gtitle"><text class="gtitle" x="12" y="50" text-anchor="start" dy="0em" style="opacity: 1; font-family: Outfit; font-size: 32px; fill: rgb(59, 59, 59); fill-opacity: 1; white-space: pre;"><tspan style="font-weight:bold">Deposit Status Breakdown by Transaction Status</tspan></text></g><g class="annotation" data-index="0" style="opacity: 1;"><g class="annotation-text-g" transform="rotate(0,236.95999999999998,86)"><g class="cursor-pointer" transform="translate(187,72)"><rect class="bg" x="0.5" y="0.5" width="98" height="27" style="stroke-width: 1px; stroke: rgb(0, 0, 0); stroke-opacity: 0; fill: rgb(0, 0, 0); fill-opacity: 0;"/><text class="annotation-text" text-anchor="middle" x="49.453125" y="21" style="font-family: 'Open Sans', verdana, arial, sans-serif; font-size: 18px; fill: rgb(59, 59, 59); fill-opacity: 1; white-space: pre;">Anomalous</text></g></g></g><g class="annotation" data-index="1" style="opacity: 1;"><g class="annotation-text-g" transform="rotate(0,570.5,86)"><g class="cursor-pointer" transform="translate(537,72)"><rect class="bg" x="0.5" y="0.5" width="66" height="27" style="stroke-width: 1px; stroke: rgb(0, 0, 0); stroke-opacity: 0; fill: rgb(0, 0, 0); fill-opacity: 0;"/><text class="annotation-text" text-anchor="middle" x="33.484375" y="21" style="font-family: 'Open Sans', verdana, arial, sans-serif; font-size: 18px; fill: rgb(59, 59, 59); fill-opacity: 1; white-space: pre;">Normal</text></g></g></g><g class="annotation" data-index="2" style="opacity: 1;"><g class="annotation-text-g" transform="rotate(0,904.0399999999998,86)"><g class="cursor-pointer" transform="translate(856,72)"><rect class="bg" x="0.5" y="0.5" width="95" height="27" style="stroke-width: 1px; stroke: rgb(0, 0, 0); stroke-opacity: 0; fill: rgb(0, 0, 0); fill-opacity: 0;"/><text class="annotation-text" text-anchor="middle" x="47.9375" y="21" style="font-family: 'Open Sans', verdana, arial, sans-serif; font-size: 18px; fill: rgb(59, 59, 59); fill-opacity: 1; white-space: pre;">Fraudulent</text></g></g></g></g></svg>