<?xml version="1.0" encoding="utf-8" standalone="no"?>
<!DOCTYPE svg PUBLIC "-//W3C//DTD SVG 1.1//EN"
  "http://www.w3.org/Graphics/SVG/1.1/DTD/svg11.dtd">
<svg xmlns:xlink="http://www.w3.org/1999/xlink" width="1008pt" height="432pt" viewBox="0 0 1008 432" xmlns="http://www.w3.org/2000/svg" version="1.1">
 <metadata>
  <rdf:RDF xmlns:dc="http://purl.org/dc/elements/1.1/" xmlns:cc="http://creativecommons.org/ns#" xmlns:rdf="http://www.w3.org/1999/02/22-rdf-syntax-ns#">
   <cc:Work>
    <dc:type rdf:resource="http://purl.org/dc/dcmitype/StillImage"/>
    <dc:date>2025-05-15T12:35:36.868570</dc:date>
    <dc:format>image/svg+xml</dc:format>
    <dc:creator>
     <cc:Agent>
      <dc:title>Matplotlib v3.8.2, https://matplotlib.org/</dc:title>
     </cc:Agent>
    </dc:creator>
   </cc:Work>
  </rdf:RDF>
 </metadata>
 <defs>
  <style type="text/css">*{stroke-linejoin: round; stroke-linecap: butt}</style>
 </defs>
 <g id="figure_1">
  <g id="patch_1">
   <path d="M 0 432 
L 1008 432 
L 1008 0 
L 0 0 
z
" style="fill: #ffffff"/>
  </g>
  <g id="axes_1">
   <g id="patch_2">
    <path d="M 565.854462 371.442123 
C 594.946081 357.432339 618.432335 333.946087 632.442121 304.854468 
C 646.451906 275.76285 650.17076 242.757119 642.985724 211.277418 
C 635.800688 179.797716 618.129467 151.674129 592.884707 131.542104 
C 567.639946 111.41008 536.289261 100.44 504 100.44 
L 504 243 
z
" style="fill: #bde0fe; stroke: #ffffff; stroke-linejoin: miter"/>
   </g>
   <g id="patch_3">
    <path d="M 392.542109 154.115288 
C 372.410082 179.360047 361.440002 210.710733 361.44 242.999993 
C 361.439998 275.289254 372.410077 306.63994 392.5421 331.884702 
C 412.674124 357.129463 440.79771 374.800685 472.277411 381.985722 
C 503.757112 389.17076 536.762843 385.451908 565.854462 371.442123 
L 504 243 
z
" style="fill: #a2d2ff; stroke: #ffffff; stroke-linejoin: miter"/>
   </g>
   <g id="patch_4">
    <path d="M 504.000013 100.44 
C 482.583997 100.439998 461.440708 105.265814 442.145544 114.557874 
C 422.850379 123.849933 405.894777 137.371573 392.542109 154.115288 
L 504 243 
z
" style="fill: #ffc8dd; stroke: #ffffff; stroke-linejoin: miter"/>
   </g>
   <g id="matplotlib.axis_1"/>
   <g id="matplotlib.axis_2"/>
   <g id="text_1">
    <!-- 42.9% -->
    <g transform="translate(656.897712 207.472745) scale(0.1 -0.1)">
     <defs>
      <path id="Cabin-Regular-34" d="M 2336 0 
L 2336 1158 
L 128 1158 
L 2509 4480 
L 2950 4480 
L 2950 1677 
L 3526 1677 
L 3526 1158 
L 2950 1158 
L 2950 0 
L 2336 0 
z
M 1024 1504 
L 915 1677 
L 2336 1677 
L 2336 3680 
L 2445 3501 
L 1024 1504 
z
" transform="scale(0.015625)"/>
      <path id="Cabin-Regular-32" d="M 365 6 
L 1587 1862 
Q 1789 2166 1933 2416 
Q 2077 2666 2152 2878 
Q 2227 3091 2227 3283 
Q 2227 3616 2040 3811 
Q 1853 4006 1530 4006 
Q 1210 4006 939 3868 
Q 669 3731 442 3501 
L 365 4141 
Q 586 4320 898 4448 
Q 1210 4576 1594 4576 
Q 2003 4576 2281 4413 
Q 2560 4250 2701 3971 
Q 2842 3693 2842 3347 
Q 2842 3050 2762 2782 
Q 2682 2515 2522 2227 
Q 2362 1939 2125 1581 
L 1446 557 
L 3014 557 
L 3014 6 
L 365 6 
z
" transform="scale(0.015625)"/>
      <path id="Cabin-Regular-2e" d="M 320 0 
L 320 678 
L 1011 678 
L 1011 0 
L 320 0 
z
" transform="scale(0.015625)"/>
      <path id="Cabin-Regular-39" d="M 1318 0 
L 902 390 
Q 1168 528 1419 712 
Q 1670 896 1888 1125 
Q 2106 1354 2269 1618 
Q 2432 1882 2525 2181 
Q 2618 2480 2618 2803 
L 2822 2458 
Q 2669 2150 2352 1971 
Q 2035 1792 1606 1792 
Q 1216 1792 915 1969 
Q 614 2147 444 2454 
Q 275 2762 275 3149 
Q 275 3565 460 3885 
Q 646 4205 977 4387 
Q 1309 4570 1747 4570 
Q 2218 4570 2552 4360 
Q 2886 4150 3062 3776 
Q 3238 3402 3238 2906 
Q 3238 2394 3068 1944 
Q 2899 1494 2619 1121 
Q 2339 749 2000 464 
Q 1661 179 1318 0 
z
M 1747 2317 
Q 2131 2317 2364 2563 
Q 2598 2810 2598 3174 
Q 2598 3555 2364 3800 
Q 2131 4045 1747 4045 
Q 1363 4045 1132 3792 
Q 902 3539 902 3168 
Q 902 2810 1132 2563 
Q 1363 2317 1747 2317 
z
" transform="scale(0.015625)"/>
      <path id="Cabin-Regular-25" d="M 1318 2022 
Q 986 2022 747 2190 
Q 509 2358 382 2651 
Q 256 2944 256 3322 
Q 256 3894 552 4238 
Q 848 4582 1318 4582 
Q 1798 4582 2089 4238 
Q 2381 3894 2381 3322 
Q 2381 2944 2256 2651 
Q 2131 2358 1892 2190 
Q 1654 2022 1318 2022 
z
M 1318 2483 
Q 1578 2483 1717 2700 
Q 1856 2918 1856 3322 
Q 1856 3725 1710 3923 
Q 1565 4122 1318 4122 
Q 1088 4122 934 3923 
Q 781 3725 781 3322 
Q 781 2918 920 2700 
Q 1059 2483 1318 2483 
z
M 1328 0 
L 3907 4480 
L 4445 4480 
L 1872 0 
L 1328 0 
z
M 4438 -90 
Q 4106 -90 3867 78 
Q 3629 246 3502 539 
Q 3376 832 3376 1210 
Q 3376 1782 3672 2126 
Q 3968 2470 4438 2470 
Q 4918 2470 5209 2126 
Q 5501 1782 5501 1210 
Q 5501 832 5376 539 
Q 5251 246 5012 78 
Q 4774 -90 4438 -90 
z
M 4438 371 
Q 4698 371 4837 588 
Q 4976 806 4976 1210 
Q 4976 1613 4830 1811 
Q 4685 2010 4438 2010 
Q 4208 2010 4054 1811 
Q 3901 1613 3901 1210 
Q 3901 806 4040 588 
Q 4179 371 4438 371 
z
" transform="scale(0.015625)"/>
     </defs>
     <use xlink:href="#Cabin-Regular-34"/>
     <use xlink:href="#Cabin-Regular-32" x="57.800003"/>
     <use xlink:href="#Cabin-Regular-2e" x="110.200012"/>
     <use xlink:href="#Cabin-Regular-39" x="131.000015"/>
     <use xlink:href="#Cabin-Regular-25" x="187.800018"/>
    </g>
   </g>
   <g id="text_2">
    <!-- 42.9% -->
    <g transform="translate(356.365364 352.201486) scale(0.1 -0.1)">
     <use xlink:href="#Cabin-Regular-34"/>
     <use xlink:href="#Cabin-Regular-32" x="57.800003"/>
     <use xlink:href="#Cabin-Regular-2e" x="110.200012"/>
     <use xlink:href="#Cabin-Regular-39" x="131.000015"/>
     <use xlink:href="#Cabin-Regular-25" x="187.800018"/>
    </g>
   </g>
   <g id="text_3">
    <!-- 14.3% -->
    <g transform="translate(417.015277 91.409292) scale(0.1 -0.1)">
     <defs>
      <path id="Cabin-Regular-31" d="M 986 0 
L 986 3603 
Q 755 3418 604 3338 
Q 454 3258 320 3213 
L 218 3782 
Q 390 3840 571 3947 
Q 752 4054 907 4192 
Q 1062 4330 1158 4480 
L 1574 4480 
L 1574 0 
L 986 0 
z
" transform="scale(0.015625)"/>
      <path id="Cabin-Regular-33" d="M 1536 -90 
Q 1168 -90 849 6 
Q 531 102 256 250 
L 403 813 
Q 678 656 945 558 
Q 1213 461 1542 461 
Q 1962 461 2197 670 
Q 2432 880 2432 1210 
Q 2432 1581 2176 1805 
Q 1920 2029 1376 2029 
L 1094 2029 
L 1094 2579 
L 1376 2579 
Q 1789 2579 2030 2774 
Q 2272 2970 2272 3309 
Q 2272 3670 2086 3844 
Q 1901 4019 1555 4019 
Q 1283 4019 1046 3913 
Q 810 3808 582 3654 
L 480 4275 
Q 726 4416 1012 4493 
Q 1299 4570 1638 4570 
Q 2054 4570 2344 4419 
Q 2634 4269 2786 4001 
Q 2938 3734 2938 3386 
Q 2938 2950 2683 2651 
Q 2429 2352 1997 2259 
L 1997 2406 
Q 2506 2307 2792 2020 
Q 3078 1734 3078 1229 
Q 3078 819 2875 523 
Q 2672 227 2323 68 
Q 1974 -90 1536 -90 
z
" transform="scale(0.015625)"/>
     </defs>
     <use xlink:href="#Cabin-Regular-31"/>
     <use xlink:href="#Cabin-Regular-34" x="32.600006"/>
     <use xlink:href="#Cabin-Regular-2e" x="90.400009"/>
     <use xlink:href="#Cabin-Regular-33" x="111.200012"/>
     <use xlink:href="#Cabin-Regular-25" x="165.300018"/>
    </g>
   </g>
   <g id="legend_1">
    <g id="patch_5">
     <path d="M 689.2 274.380469 
L 769.260938 274.380469 
Q 771.260938 274.380469 771.260938 272.380469 
L 771.260938 213.619531 
Q 771.260938 211.619531 769.260938 211.619531 
L 689.2 211.619531 
Q 687.2 211.619531 687.2 213.619531 
L 687.2 272.380469 
Q 687.2 274.380469 689.2 274.380469 
z
" style="fill: #ffffff; opacity: 0.8; stroke: #cccccc; stroke-linejoin: miter"/>
    </g>
    <g id="text_4">
     <!-- Category -->
     <g transform="translate(710.160938 223.119531) scale(0.1 -0.1)">
      <defs>
       <path id="Cabin-Regular-43" d="M 2509 -90 
Q 1856 -90 1345 196 
Q 835 483 542 1006 
Q 250 1530 250 2240 
Q 250 2950 546 3473 
Q 842 3997 1358 4283 
Q 1875 4570 2534 4570 
Q 2877 4570 3187 4496 
Q 3498 4422 3731 4307 
L 3667 3744 
Q 3427 3859 3139 3939 
Q 2851 4019 2528 4019 
Q 2000 4019 1641 3780 
Q 1283 3542 1099 3139 
Q 915 2736 915 2240 
Q 915 1744 1096 1341 
Q 1277 938 1633 699 
Q 1990 461 2515 461 
Q 2848 461 3131 533 
Q 3414 605 3667 730 
L 3731 166 
Q 3491 58 3190 -16 
Q 2890 -90 2509 -90 
z
" transform="scale(0.015625)"/>
       <path id="Cabin-Regular-61" d="M 1120 -64 
Q 829 -64 611 54 
Q 394 173 274 377 
Q 154 582 154 845 
Q 154 1110 270 1300 
Q 387 1491 584 1617 
Q 781 1744 1024 1819 
Q 1267 1894 1528 1928 
Q 1789 1962 2029 1965 
Q 2029 2413 1853 2550 
Q 1677 2688 1344 2688 
Q 1168 2688 968 2633 
Q 768 2579 518 2406 
L 435 2874 
Q 624 3018 905 3109 
Q 1187 3200 1498 3200 
Q 1894 3200 2137 3061 
Q 2381 2922 2493 2592 
Q 2605 2262 2605 1696 
L 2605 1056 
Q 2605 832 2625 686 
Q 2646 541 2721 469 
Q 2797 397 2963 397 
L 3021 397 
L 2931 -64 
L 2886 -64 
Q 2608 -64 2456 -9 
Q 2304 45 2224 147 
Q 2144 250 2080 397 
Q 1904 192 1664 64 
Q 1424 -64 1120 -64 
z
M 1229 397 
Q 1459 397 1675 512 
Q 1891 627 2029 819 
L 2029 1568 
Q 1571 1552 1288 1478 
Q 1005 1405 873 1257 
Q 742 1110 742 877 
Q 742 624 878 510 
Q 1014 397 1229 397 
z
" transform="scale(0.015625)"/>
       <path id="Cabin-Regular-74" d="M 1472 -64 
Q 1174 -64 995 45 
Q 816 154 734 325 
Q 653 496 653 685 
L 653 2688 
L 115 2688 
L 166 3136 
L 653 3136 
L 653 3910 
L 1229 3968 
L 1229 3136 
L 2054 3136 
L 2054 2688 
L 1229 2688 
L 1229 1037 
Q 1229 736 1264 601 
Q 1299 467 1438 432 
Q 1578 397 1888 397 
L 2035 397 
L 1990 -64 
L 1472 -64 
z
" transform="scale(0.015625)"/>
       <path id="Cabin-Regular-65" d="M 1894 -64 
Q 1341 -64 963 163 
Q 586 390 392 766 
Q 198 1142 198 1594 
Q 198 2032 379 2397 
Q 560 2762 904 2981 
Q 1248 3200 1734 3200 
Q 2125 3200 2430 3045 
Q 2736 2890 2910 2594 
Q 3085 2298 3085 1875 
Q 3085 1808 3080 1729 
Q 3075 1651 3059 1568 
L 787 1568 
Q 829 1133 995 889 
Q 1162 646 1414 547 
Q 1667 448 1965 448 
Q 2182 448 2419 493 
Q 2656 538 2867 634 
L 2944 179 
Q 2762 99 2499 17 
Q 2237 -64 1894 -64 
z
M 838 1965 
L 2490 1965 
Q 2490 2186 2406 2349 
Q 2323 2512 2153 2600 
Q 1984 2688 1722 2688 
Q 1338 2688 1131 2497 
Q 925 2307 838 1965 
z
" transform="scale(0.015625)"/>
       <path id="Cabin-Regular-67" d="M 1658 -1600 
Q 1229 -1600 891 -1494 
Q 554 -1389 360 -1181 
Q 166 -973 166 -666 
Q 166 -410 312 -226 
Q 458 -42 710 70 
Q 560 144 481 245 
Q 403 346 403 467 
Q 403 611 491 728 
Q 579 845 774 922 
Q 512 1085 371 1361 
Q 230 1638 230 1978 
Q 230 2320 384 2597 
Q 538 2874 827 3037 
Q 1117 3200 1523 3200 
Q 1741 3200 1934 3136 
Q 2128 3072 2291 2957 
Q 2435 3040 2632 3094 
Q 2829 3149 3072 3149 
Q 3088 3149 3099 3149 
Q 3110 3149 3123 3149 
L 3053 2765 
Q 3014 2765 2979 2765 
Q 2944 2765 2906 2765 
Q 2874 2765 2758 2755 
Q 2643 2746 2547 2720 
Q 2678 2566 2750 2376 
Q 2822 2186 2822 1978 
Q 2822 1619 2667 1336 
Q 2512 1053 2221 888 
Q 1930 723 1523 723 
Q 1408 723 1302 737 
Q 1197 752 1101 781 
Q 954 733 954 614 
Q 954 544 1037 491 
Q 1120 438 1306 410 
L 2144 275 
Q 2653 195 2929 -19 
Q 3206 -234 3206 -627 
Q 3206 -954 3016 -1170 
Q 2826 -1386 2477 -1493 
Q 2128 -1600 1658 -1600 
z
M 1709 -1088 
Q 2150 -1088 2387 -974 
Q 2624 -861 2624 -640 
Q 2624 -467 2475 -368 
Q 2326 -269 2048 -218 
L 1155 -67 
Q 979 -144 848 -273 
Q 717 -403 717 -576 
Q 717 -845 987 -966 
Q 1258 -1088 1709 -1088 
z
M 1523 1184 
Q 1888 1184 2080 1403 
Q 2272 1622 2272 1971 
Q 2272 2307 2080 2523 
Q 1888 2739 1523 2739 
Q 1158 2739 969 2523 
Q 781 2307 781 1971 
Q 781 1622 969 1403 
Q 1158 1184 1523 1184 
z
" transform="scale(0.015625)"/>
       <path id="Cabin-Regular-6f" d="M 1760 -64 
Q 1267 -64 920 155 
Q 573 374 389 744 
Q 205 1114 205 1568 
Q 205 2022 389 2392 
Q 573 2762 920 2981 
Q 1267 3200 1760 3200 
Q 2250 3200 2598 2981 
Q 2947 2762 3131 2392 
Q 3315 2022 3315 1568 
Q 3315 1114 3131 744 
Q 2947 374 2598 155 
Q 2250 -64 1760 -64 
z
M 1760 448 
Q 2227 448 2476 744 
Q 2726 1040 2726 1568 
Q 2726 2096 2476 2392 
Q 2227 2688 1760 2688 
Q 1296 2688 1045 2392 
Q 794 2096 794 1568 
Q 794 1040 1045 744 
Q 1296 448 1760 448 
z
" transform="scale(0.015625)"/>
       <path id="Cabin-Regular-72" d="M 390 0 
L 390 3136 
L 864 3136 
L 934 2618 
Q 1174 2915 1393 3057 
Q 1613 3200 1862 3200 
Q 1942 3200 2010 3181 
L 1952 2547 
Q 1910 2557 1864 2561 
Q 1818 2566 1760 2566 
Q 1510 2566 1300 2456 
Q 1091 2346 1005 2214 
L 1005 0 
L 390 0 
z
" transform="scale(0.015625)"/>
       <path id="Cabin-Regular-79" d="M 627 -1549 
L 1350 141 
L 45 3136 
L 685 3136 
L 1664 806 
L 2547 3136 
L 3187 3136 
L 1267 -1549 
L 627 -1549 
z
" transform="scale(0.015625)"/>
      </defs>
      <use xlink:href="#Cabin-Regular-43"/>
      <use xlink:href="#Cabin-Regular-61" x="61.600006"/>
      <use xlink:href="#Cabin-Regular-74" x="109.600006"/>
      <use xlink:href="#Cabin-Regular-65" x="143.300003"/>
      <use xlink:href="#Cabin-Regular-67" x="194.500015"/>
      <use xlink:href="#Cabin-Regular-6f" x="244.300018"/>
      <use xlink:href="#Cabin-Regular-72" x="299.300018"/>
      <use xlink:href="#Cabin-Regular-79" x="330.900024"/>
     </g>
    </g>
    <g id="patch_6">
     <path d="M 691.2 238.119531 
L 711.2 238.119531 
L 711.2 231.119531 
L 691.2 231.119531 
z
" style="fill: #bde0fe; stroke: #ffffff; stroke-linejoin: miter"/>
    </g>
    <g id="text_5">
     <!-- Anomalous -->
     <g transform="translate(719.2 238.119531) scale(0.1 -0.1)">
      <defs>
       <path id="Cabin-Regular-41" d="M 2931 1210 
L 1011 1210 
L 1011 1760 
L 2931 1760 
L 2931 1210 
z
M 1882 3885 
L 2061 3885 
L 685 0 
L 45 0 
L 1651 4480 
L 2291 4480 
L 3898 0 
L 3258 0 
L 1882 3885 
z
" transform="scale(0.015625)"/>
       <path id="Cabin-Regular-6e" d="M 390 0 
L 390 3136 
L 838 3136 
L 954 2534 
L 730 2630 
Q 1046 2982 1348 3091 
Q 1651 3200 1939 3200 
Q 2627 3200 2923 2803 
Q 3219 2406 3219 1728 
L 3219 0 
L 2643 0 
L 2643 1728 
Q 2643 2227 2457 2457 
Q 2272 2688 1824 2688 
Q 1507 2688 1243 2549 
Q 979 2410 896 2106 
L 966 2458 
L 966 0 
L 390 0 
z
" transform="scale(0.015625)"/>
       <path id="Cabin-Regular-6d" d="M 390 0 
L 390 3136 
L 838 3136 
L 954 2534 
L 736 2637 
Q 1030 2954 1308 3077 
Q 1587 3200 1894 3200 
Q 2125 3200 2337 3125 
Q 2550 3050 2721 2862 
Q 2893 2675 2995 2342 
L 2835 2413 
Q 2976 2778 3267 2989 
Q 3558 3200 4051 3200 
Q 4445 3200 4713 3054 
Q 4982 2909 5118 2609 
Q 5254 2310 5254 1850 
L 5254 0 
L 4678 0 
L 4678 1843 
Q 4678 2285 4505 2486 
Q 4333 2688 3942 2688 
Q 3667 2688 3500 2603 
Q 3334 2518 3249 2384 
Q 3165 2250 3137 2099 
Q 3110 1949 3110 1818 
L 3110 0 
L 2534 0 
L 2534 1728 
Q 2534 2112 2441 2320 
Q 2349 2528 2182 2608 
Q 2016 2688 1798 2688 
Q 1482 2688 1232 2549 
Q 982 2410 896 2106 
L 966 2419 
L 966 0 
L 390 0 
z
" transform="scale(0.015625)"/>
       <path id="Cabin-Regular-6c" d="M 1197 -64 
Q 893 -64 715 46 
Q 538 157 461 329 
Q 384 502 384 691 
L 384 4800 
L 960 4800 
L 960 1024 
Q 960 755 995 620 
Q 1030 486 1137 441 
Q 1245 397 1466 397 
L 1382 -64 
L 1197 -64 
z
" transform="scale(0.015625)"/>
       <path id="Cabin-Regular-75" d="M 1517 -64 
Q 1149 -64 889 85 
Q 630 234 494 538 
Q 358 842 358 1312 
L 358 3136 
L 934 3136 
L 934 1472 
Q 934 973 1105 710 
Q 1277 448 1664 448 
Q 1930 448 2157 576 
Q 2384 704 2470 986 
L 2387 672 
L 2387 3136 
L 2963 3136 
L 2963 0 
L 2451 0 
L 2336 614 
L 2490 512 
Q 2333 221 2107 78 
Q 1882 -64 1517 -64 
z
" transform="scale(0.015625)"/>
       <path id="Cabin-Regular-73" d="M 1280 -64 
Q 864 -64 590 35 
Q 317 134 205 211 
L 275 768 
Q 378 678 637 563 
Q 896 448 1254 448 
Q 1558 448 1720 550 
Q 1882 653 1882 838 
Q 1882 1002 1778 1102 
Q 1674 1203 1528 1262 
Q 1382 1322 1254 1357 
Q 1040 1414 811 1502 
Q 582 1590 425 1766 
Q 269 1942 269 2259 
Q 269 2499 384 2715 
Q 499 2931 758 3065 
Q 1018 3200 1446 3200 
Q 1760 3200 1957 3134 
Q 2154 3069 2298 2995 
L 2227 2470 
Q 2090 2586 1907 2666 
Q 1725 2746 1459 2746 
Q 1190 2746 1020 2645 
Q 851 2544 851 2323 
Q 851 2102 1032 2009 
Q 1213 1917 1581 1805 
Q 1696 1773 1848 1712 
Q 2000 1651 2144 1548 
Q 2288 1446 2382 1281 
Q 2477 1117 2477 870 
Q 2477 662 2377 446 
Q 2278 230 2019 83 
Q 1760 -64 1280 -64 
z
" transform="scale(0.015625)"/>
      </defs>
      <use xlink:href="#Cabin-Regular-41"/>
      <use xlink:href="#Cabin-Regular-6e" x="61.600006"/>
      <use xlink:href="#Cabin-Regular-6f" x="117.500015"/>
      <use xlink:href="#Cabin-Regular-6d" x="172.500015"/>
      <use xlink:href="#Cabin-Regular-61" x="260.200027"/>
      <use xlink:href="#Cabin-Regular-6c" x="308.200027"/>
      <use xlink:href="#Cabin-Regular-6f" x="331.800034"/>
      <use xlink:href="#Cabin-Regular-75" x="386.800034"/>
      <use xlink:href="#Cabin-Regular-73" x="439.200043"/>
     </g>
    </g>
    <g id="patch_7">
     <path d="M 691.2 253.039844 
L 711.2 253.039844 
L 711.2 246.039844 
L 691.2 246.039844 
z
" style="fill: #a2d2ff; stroke: #ffffff; stroke-linejoin: miter"/>
    </g>
    <g id="text_6">
     <!-- Normal -->
     <g transform="translate(719.2 253.039844) scale(0.1 -0.1)">
      <defs>
       <path id="Cabin-Regular-4e" d="M 512 0 
L 512 4480 
L 1171 4480 
L 3379 1126 
L 3379 4480 
L 3994 4480 
L 3994 0 
L 3475 0 
L 1120 3539 
L 1120 0 
L 512 0 
z
" transform="scale(0.015625)"/>
      </defs>
      <use xlink:href="#Cabin-Regular-4e"/>
      <use xlink:href="#Cabin-Regular-6f" x="70.400009"/>
      <use xlink:href="#Cabin-Regular-72" x="125.400009"/>
      <use xlink:href="#Cabin-Regular-6d" x="157.000015"/>
      <use xlink:href="#Cabin-Regular-61" x="244.700027"/>
      <use xlink:href="#Cabin-Regular-6c" x="292.700027"/>
     </g>
    </g>
    <g id="patch_8">
     <path d="M 691.2 267.960156 
L 711.2 267.960156 
L 711.2 260.960156 
L 691.2 260.960156 
z
" style="fill: #ffc8dd; stroke: #ffffff; stroke-linejoin: miter"/>
    </g>
    <g id="text_7">
     <!-- Fraudulent -->
     <g transform="translate(719.2 267.960156) scale(0.1 -0.1)">
      <defs>
       <path id="Cabin-Regular-46" d="M 512 0 
L 512 4480 
L 3245 4480 
L 3245 3930 
L 1120 3930 
L 1120 2618 
L 2758 2618 
L 2758 2067 
L 1120 2067 
L 1120 0 
L 512 0 
z
" transform="scale(0.015625)"/>
       <path id="Cabin-Regular-64" d="M 1632 -64 
Q 1232 -64 909 153 
Q 586 371 395 739 
Q 205 1107 205 1562 
Q 205 1994 379 2368 
Q 554 2742 874 2971 
Q 1194 3200 1632 3200 
Q 1946 3200 2238 3064 
Q 2531 2928 2714 2611 
L 2592 2528 
L 2592 4800 
L 3168 4800 
L 3168 0 
L 2656 0 
L 2547 666 
L 2694 563 
Q 2557 253 2262 94 
Q 1968 -64 1632 -64 
z
M 1734 448 
Q 1952 448 2165 560 
Q 2378 672 2517 917 
Q 2656 1162 2656 1562 
Q 2656 1933 2517 2184 
Q 2378 2435 2165 2561 
Q 1952 2688 1734 2688 
Q 1440 2688 1229 2541 
Q 1018 2394 906 2139 
Q 794 1885 794 1562 
Q 794 1258 906 1005 
Q 1018 752 1229 600 
Q 1440 448 1734 448 
z
" transform="scale(0.015625)"/>
      </defs>
      <use xlink:href="#Cabin-Regular-46"/>
      <use xlink:href="#Cabin-Regular-72" x="52.300003"/>
      <use xlink:href="#Cabin-Regular-61" x="83.900009"/>
      <use xlink:href="#Cabin-Regular-75" x="131.900009"/>
      <use xlink:href="#Cabin-Regular-64" x="184.300018"/>
      <use xlink:href="#Cabin-Regular-75" x="239.800018"/>
      <use xlink:href="#Cabin-Regular-6c" x="292.200027"/>
      <use xlink:href="#Cabin-Regular-65" x="315.800034"/>
      <use xlink:href="#Cabin-Regular-6e" x="367.000046"/>
      <use xlink:href="#Cabin-Regular-74" x="422.900055"/>
     </g>
    </g>
   </g>
  </g>
  <g id="text_8">
   <!-- Breakdown of Transaction Categories -->
   <g transform="translate(50.4 34.866563) scale(0.18 -0.18)">
    <defs>
     <path id="Outfit-Bold-42" d="M 435 0 
L 435 4518 
L 2374 4518 
Q 2810 4518 3114 4358 
Q 3418 4198 3578 3929 
Q 3738 3661 3738 3334 
Q 3738 2720 3181 2413 
Q 3526 2246 3708 1961 
Q 3891 1677 3891 1312 
Q 3891 941 3708 643 
Q 3526 346 3184 173 
Q 2842 0 2362 0 
L 435 0 
z
M 2182 3738 
L 1427 3738 
L 1427 2733 
L 2182 2733 
Q 2426 2733 2582 2857 
Q 2739 2982 2739 3238 
Q 2739 3488 2585 3613 
Q 2432 3738 2182 3738 
z
M 2266 1971 
L 1427 1971 
L 1427 781 
L 2266 781 
Q 2554 781 2723 950 
Q 2893 1120 2893 1376 
Q 2893 1632 2723 1801 
Q 2554 1971 2266 1971 
z
" transform="scale(0.015625)"/>
     <path id="Outfit-Bold-72" d="M 346 0 
L 346 3110 
L 1325 3110 
L 1325 2874 
Q 1632 3174 2125 3174 
Q 2566 3174 2816 2899 
L 2234 2163 
Q 2170 2234 2077 2272 
Q 1984 2310 1856 2310 
Q 1613 2310 1469 2160 
Q 1325 2010 1325 1709 
L 1325 0 
L 346 0 
z
" transform="scale(0.015625)"/>
     <path id="Outfit-Bold-65" d="M 1882 -70 
Q 1376 -70 982 138 
Q 589 346 365 714 
Q 141 1082 141 1555 
Q 141 2022 361 2387 
Q 582 2752 960 2966 
Q 1338 3181 1811 3181 
Q 2266 3181 2621 2979 
Q 2976 2778 3177 2429 
Q 3379 2080 3379 1626 
Q 3379 1453 3334 1235 
L 1107 1229 
Q 1184 966 1382 825 
Q 1581 685 1875 685 
Q 2342 685 2618 1005 
L 3155 467 
Q 2925 198 2598 64 
Q 2272 -70 1882 -70 
z
M 1818 2432 
Q 1549 2432 1363 2291 
Q 1178 2150 1107 1901 
L 2464 1907 
Q 2342 2432 1818 2432 
z
" transform="scale(0.015625)"/>
     <path id="Outfit-Bold-61" d="M 1645 -64 
Q 1216 -64 880 147 
Q 544 358 349 723 
Q 154 1088 154 1555 
Q 154 2016 349 2384 
Q 544 2752 880 2963 
Q 1216 3174 1645 3174 
Q 1901 3174 2121 3088 
Q 2342 3002 2502 2854 
L 2502 3110 
L 3462 3110 
L 3462 0 
L 2502 0 
L 2502 256 
Q 2342 102 2121 19 
Q 1901 -64 1645 -64 
z
M 1843 819 
Q 2157 819 2349 1024 
Q 2541 1229 2541 1555 
Q 2541 1882 2349 2086 
Q 2157 2291 1850 2291 
Q 1542 2291 1344 2083 
Q 1146 1875 1146 1555 
Q 1146 1229 1341 1024 
Q 1536 819 1843 819 
z
" transform="scale(0.015625)"/>
     <path id="Outfit-Bold-6b" d="M 346 0 
L 346 4646 
L 1325 4646 
L 1325 1722 
L 2330 3110 
L 3424 3110 
L 2285 1645 
L 3488 0 
L 2336 0 
L 1325 1498 
L 1325 0 
L 346 0 
z
" transform="scale(0.015625)"/>
     <path id="Outfit-Bold-64" d="M 1670 -64 
Q 1229 -64 886 147 
Q 544 358 349 723 
Q 154 1088 154 1555 
Q 154 2016 349 2384 
Q 544 2752 886 2963 
Q 1229 3174 1670 3174 
Q 1907 3174 2115 3104 
Q 2323 3034 2483 2912 
L 2483 4646 
L 3462 4646 
L 3462 0 
L 2502 0 
L 2502 224 
Q 2336 90 2125 13 
Q 1914 -64 1670 -64 
z
M 1843 819 
Q 2157 819 2349 1024 
Q 2541 1229 2541 1555 
Q 2541 1882 2349 2086 
Q 2157 2291 1850 2291 
Q 1542 2291 1344 2083 
Q 1146 1875 1146 1555 
Q 1146 1229 1341 1024 
Q 1536 819 1843 819 
z
" transform="scale(0.015625)"/>
     <path id="Outfit-Bold-6f" d="M 1843 -70 
Q 1363 -70 976 144 
Q 589 358 365 729 
Q 141 1101 141 1562 
Q 141 2022 365 2387 
Q 589 2752 973 2966 
Q 1357 3181 1843 3181 
Q 2323 3181 2710 2969 
Q 3098 2758 3322 2390 
Q 3546 2022 3546 1562 
Q 3546 1101 3322 729 
Q 3098 358 2714 144 
Q 2330 -70 1843 -70 
z
M 1843 819 
Q 2157 819 2352 1024 
Q 2547 1229 2547 1562 
Q 2547 1888 2348 2089 
Q 2150 2291 1843 2291 
Q 1530 2291 1334 2086 
Q 1139 1882 1139 1555 
Q 1139 1229 1334 1024 
Q 1530 819 1843 819 
z
" transform="scale(0.015625)"/>
     <path id="Outfit-Bold-77" d="M 1107 0 
L 32 3110 
L 992 3110 
L 1523 1306 
L 2112 3110 
L 2906 3110 
L 3494 1306 
L 4032 3110 
L 4992 3110 
L 3917 0 
L 3117 0 
L 2509 1792 
L 1901 0 
L 1107 0 
z
" transform="scale(0.015625)"/>
     <path id="Outfit-Bold-6e" d="M 346 0 
L 346 3110 
L 1325 3110 
L 1325 2861 
Q 1670 3174 2195 3174 
Q 2534 3174 2803 3011 
Q 3072 2848 3225 2579 
Q 3379 2310 3379 1990 
L 3379 0 
L 2400 0 
L 2400 1773 
Q 2400 2016 2249 2166 
Q 2099 2317 1869 2317 
Q 1632 2317 1478 2166 
Q 1325 2016 1325 1773 
L 1325 0 
L 346 0 
z
" transform="scale(0.015625)"/>
     <path id="Outfit-Bold-20" transform="scale(0.015625)"/>
     <path id="Outfit-Bold-66" d="M 742 0 
L 742 2278 
L 58 2278 
L 58 3110 
L 742 3110 
L 742 3379 
Q 742 3757 912 4061 
Q 1082 4365 1389 4541 
Q 1696 4717 2118 4717 
Q 2438 4717 2675 4611 
Q 2912 4506 3098 4320 
L 2483 3706 
Q 2419 3770 2339 3805 
Q 2259 3840 2150 3840 
Q 1952 3840 1837 3725 
Q 1722 3610 1722 3411 
L 1722 3110 
L 2618 3110 
L 2618 2278 
L 1722 2278 
L 1722 0 
L 742 0 
z
" transform="scale(0.015625)"/>
     <path id="Outfit-Bold-54" d="M 1542 0 
L 1542 3642 
L 128 3642 
L 128 4518 
L 3962 4518 
L 3962 3642 
L 2547 3642 
L 2547 0 
L 1542 0 
z
" transform="scale(0.015625)"/>
     <path id="Outfit-Bold-73" d="M 1478 -77 
Q 1062 -77 678 76 
Q 294 230 58 499 
L 614 1062 
Q 934 710 1440 710 
Q 1798 710 1798 902 
Q 1798 1018 1686 1078 
Q 1574 1139 1401 1184 
Q 1229 1229 1037 1289 
Q 845 1350 672 1452 
Q 499 1555 390 1734 
Q 282 1914 282 2202 
Q 282 2643 618 2921 
Q 954 3200 1530 3200 
Q 1926 3200 2262 3062 
Q 2598 2925 2810 2656 
L 2253 2093 
Q 2106 2266 1923 2336 
Q 1741 2406 1568 2406 
Q 1235 2406 1235 2221 
Q 1235 2118 1344 2064 
Q 1453 2010 1625 1962 
Q 1798 1914 1990 1853 
Q 2182 1792 2352 1683 
Q 2522 1574 2634 1388 
Q 2746 1203 2746 915 
Q 2746 454 2403 188 
Q 2061 -77 1478 -77 
z
" transform="scale(0.015625)"/>
     <path id="Outfit-Bold-63" d="M 1850 -70 
Q 1363 -70 976 141 
Q 589 352 365 720 
Q 141 1088 141 1555 
Q 141 2016 368 2384 
Q 595 2752 982 2966 
Q 1370 3181 1862 3181 
Q 2592 3181 3072 2682 
L 2445 2054 
Q 2227 2291 1862 2291 
Q 1549 2291 1344 2089 
Q 1139 1888 1139 1562 
Q 1139 1229 1344 1024 
Q 1549 819 1862 819 
Q 2240 819 2464 1075 
L 3085 448 
Q 2586 -70 1850 -70 
z
" transform="scale(0.015625)"/>
     <path id="Outfit-Bold-74" d="M 787 0 
L 787 2278 
L 83 2278 
L 83 3110 
L 787 3110 
L 787 4397 
L 1766 4397 
L 1766 3110 
L 2470 3110 
L 2470 2278 
L 1766 2278 
L 1766 0 
L 787 0 
z
" transform="scale(0.015625)"/>
     <path id="Outfit-Bold-69" d="M 838 3539 
Q 608 3539 457 3696 
Q 307 3853 307 4077 
Q 307 4301 457 4457 
Q 608 4614 838 4614 
Q 1069 4614 1216 4457 
Q 1363 4301 1363 4077 
Q 1363 3853 1216 3696 
Q 1069 3539 838 3539 
z
M 346 0 
L 346 3110 
L 1325 3110 
L 1325 0 
L 346 0 
z
" transform="scale(0.015625)"/>
     <path id="Outfit-Bold-43" d="M 2579 -70 
Q 2067 -70 1635 106 
Q 1203 282 883 598 
Q 563 915 384 1340 
Q 205 1766 205 2266 
Q 205 2758 384 3180 
Q 563 3603 883 3920 
Q 1203 4237 1632 4413 
Q 2061 4589 2573 4589 
Q 3110 4589 3529 4416 
Q 3949 4243 4262 3942 
L 3590 3264 
Q 3411 3456 3158 3565 
Q 2906 3674 2573 3674 
Q 2176 3674 1875 3498 
Q 1574 3322 1404 3005 
Q 1235 2688 1235 2266 
Q 1235 1837 1404 1517 
Q 1574 1197 1875 1021 
Q 2176 845 2573 845 
Q 2918 845 3174 953 
Q 3430 1062 3616 1254 
L 4294 576 
Q 3968 275 3549 102 
Q 3130 -70 2579 -70 
z
" transform="scale(0.015625)"/>
     <path id="Outfit-Bold-67" d="M 1619 96 
Q 1190 96 857 301 
Q 525 506 333 854 
Q 141 1203 141 1638 
Q 141 2074 333 2419 
Q 525 2765 857 2969 
Q 1190 3174 1619 3174 
Q 1856 3174 2064 3104 
Q 2272 3034 2432 2899 
L 2432 3110 
L 3392 3110 
L 3392 186 
Q 3392 -294 3168 -649 
Q 2944 -1005 2553 -1200 
Q 2163 -1395 1664 -1395 
Q 1152 -1395 765 -1219 
Q 378 -1043 154 -723 
L 755 -122 
Q 922 -320 1130 -422 
Q 1338 -525 1632 -525 
Q 1997 -525 2205 -345 
Q 2413 -166 2413 160 
L 2413 358 
Q 2259 237 2054 166 
Q 1850 96 1619 96 
z
M 1805 966 
Q 2112 966 2291 1158 
Q 2470 1350 2470 1638 
Q 2470 1926 2291 2121 
Q 2112 2317 1805 2317 
Q 1498 2317 1315 2118 
Q 1133 1920 1133 1638 
Q 1133 1363 1315 1164 
Q 1498 966 1805 966 
z
" transform="scale(0.015625)"/>
    </defs>
    <use xlink:href="#Outfit-Bold-42"/>
    <use xlink:href="#Outfit-Bold-72" x="64.099991"/>
    <use xlink:href="#Outfit-Bold-65" x="108.499985"/>
    <use xlink:href="#Outfit-Bold-61" x="163.299973"/>
    <use xlink:href="#Outfit-Bold-6b" x="222.799957"/>
    <use xlink:href="#Outfit-Bold-64" x="277.399948"/>
    <use xlink:href="#Outfit-Bold-6f" x="336.899933"/>
    <use xlink:href="#Outfit-Bold-77" x="394.499924"/>
    <use xlink:href="#Outfit-Bold-6e" x="472.999908"/>
    <use xlink:href="#Outfit-Bold-20" x="530.199905"/>
    <use xlink:href="#Outfit-Bold-6f" x="549.19989"/>
    <use xlink:href="#Outfit-Bold-66" x="606.799881"/>
    <use xlink:href="#Outfit-Bold-20" x="650.399872"/>
    <use xlink:href="#Outfit-Bold-54" x="669.399857"/>
    <use xlink:href="#Outfit-Bold-72" x="733.29985"/>
    <use xlink:href="#Outfit-Bold-61" x="777.699844"/>
    <use xlink:href="#Outfit-Bold-6e" x="837.199829"/>
    <use xlink:href="#Outfit-Bold-73" x="894.399826"/>
    <use xlink:href="#Outfit-Bold-61" x="940.199814"/>
    <use xlink:href="#Outfit-Bold-63" x="999.699799"/>
    <use xlink:href="#Outfit-Bold-74" x="1049.299789"/>
    <use xlink:href="#Outfit-Bold-69" x="1089.199783"/>
    <use xlink:href="#Outfit-Bold-6f" x="1115.299774"/>
    <use xlink:href="#Outfit-Bold-6e" x="1172.899765"/>
    <use xlink:href="#Outfit-Bold-20" x="1230.099762"/>
    <use xlink:href="#Outfit-Bold-43" x="1249.099747"/>
    <use xlink:href="#Outfit-Bold-61" x="1317.999741"/>
    <use xlink:href="#Outfit-Bold-74" x="1377.499725"/>
    <use xlink:href="#Outfit-Bold-65" x="1417.399719"/>
    <use xlink:href="#Outfit-Bold-67" x="1472.199707"/>
    <use xlink:href="#Outfit-Bold-6f" x="1530.599701"/>
    <use xlink:href="#Outfit-Bold-72" x="1588.199692"/>
    <use xlink:href="#Outfit-Bold-69" x="1632.599686"/>
    <use xlink:href="#Outfit-Bold-65" x="1658.699677"/>
    <use xlink:href="#Outfit-Bold-73" x="1713.499664"/>
   </g>
  </g>
  <g id="text_9">
   <!-- Each slice represents the proportion of a specific transaction type. -->
   <g transform="translate(50.4 52.42725) scale(0.12 -0.12)">
    <defs>
     <path id="Outfit-Thin-45" d="M 634 0 
L 634 4326 
L 838 4326 
L 838 0 
L 634 0 
z
M 749 0 
L 749 186 
L 3418 186 
L 3418 0 
L 749 0 
z
M 749 2131 
L 749 2310 
L 3226 2310 
L 3226 2131 
L 749 2131 
z
M 749 4141 
L 749 4326 
L 3379 4326 
L 3379 4141 
L 749 4141 
z
" transform="scale(0.015625)"/>
     <path id="Outfit-Thin-61" d="M 1837 -64 
Q 1402 -64 1059 137 
Q 717 339 518 684 
Q 320 1030 320 1466 
Q 320 1901 518 2249 
Q 717 2598 1056 2803 
Q 1395 3008 1824 3008 
Q 2163 3008 2435 2883 
Q 2707 2758 2889 2528 
Q 3072 2298 3142 1978 
L 3142 973 
Q 3066 653 2883 419 
Q 2701 186 2435 61 
Q 2170 -64 1837 -64 
z
M 1862 122 
Q 2413 122 2739 490 
Q 3066 858 3066 1466 
Q 3066 1875 2915 2179 
Q 2765 2483 2489 2652 
Q 2214 2822 1850 2822 
Q 1466 2822 1168 2646 
Q 870 2470 697 2166 
Q 525 1862 525 1472 
Q 525 1082 697 778 
Q 870 474 1174 298 
Q 1478 122 1862 122 
z
M 3059 0 
L 3059 787 
L 3117 1517 
L 3059 2227 
L 3059 2944 
L 3258 2944 
L 3258 0 
L 3059 0 
z
" transform="scale(0.015625)"/>
     <path id="Outfit-Thin-63" d="M 1837 -64 
Q 1408 -64 1065 141 
Q 723 346 521 698 
Q 320 1050 320 1485 
Q 320 1914 521 2259 
Q 723 2605 1065 2806 
Q 1408 3008 1837 3008 
Q 2157 3008 2435 2889 
Q 2714 2771 2912 2560 
L 2778 2426 
Q 2605 2611 2361 2716 
Q 2118 2822 1837 2822 
Q 1466 2822 1168 2646 
Q 870 2470 697 2169 
Q 525 1869 525 1485 
Q 525 1094 697 787 
Q 870 480 1168 301 
Q 1466 122 1837 122 
Q 2125 122 2371 227 
Q 2618 333 2797 525 
L 2931 390 
Q 2726 173 2441 54 
Q 2157 -64 1837 -64 
z
" transform="scale(0.015625)"/>
     <path id="Outfit-Thin-68" d="M 2790 0 
L 2790 1760 
Q 2790 2240 2515 2534 
Q 2240 2829 1779 2829 
Q 1466 2829 1226 2691 
Q 986 2554 848 2317 
Q 710 2080 710 1766 
L 576 1843 
Q 576 2176 739 2438 
Q 902 2701 1180 2854 
Q 1459 3008 1811 3008 
Q 2163 3008 2428 2848 
Q 2694 2688 2841 2406 
Q 2989 2125 2989 1760 
L 2989 0 
L 2790 0 
z
M 512 0 
L 512 4454 
L 710 4454 
L 710 0 
L 512 0 
z
" transform="scale(0.015625)"/>
     <path id="Outfit-Thin-20" transform="scale(0.015625)"/>
     <path id="Outfit-Thin-73" d="M 1357 -64 
Q 1120 -64 912 3 
Q 704 70 537 188 
Q 371 307 243 461 
L 378 602 
Q 570 352 819 233 
Q 1069 115 1363 115 
Q 1728 115 1945 272 
Q 2163 429 2163 704 
Q 2163 947 2038 1088 
Q 1914 1229 1715 1305 
Q 1517 1382 1296 1446 
Q 1075 1510 876 1596 
Q 678 1683 553 1840 
Q 429 1997 429 2266 
Q 429 2483 544 2649 
Q 659 2816 870 2912 
Q 1082 3008 1370 3008 
Q 1683 3008 1945 2896 
Q 2208 2784 2355 2573 
L 2221 2438 
Q 2093 2618 1862 2723 
Q 1632 2829 1350 2829 
Q 992 2829 806 2669 
Q 621 2509 621 2272 
Q 621 2048 745 1920 
Q 870 1792 1068 1721 
Q 1267 1651 1488 1590 
Q 1709 1530 1907 1437 
Q 2106 1344 2230 1181 
Q 2355 1018 2355 730 
Q 2355 365 2083 150 
Q 1811 -64 1357 -64 
z
" transform="scale(0.015625)"/>
     <path id="Outfit-Thin-6c" d="M 512 0 
L 512 4454 
L 710 4454 
L 710 0 
L 512 0 
z
" transform="scale(0.015625)"/>
     <path id="Outfit-Thin-69" d="M 512 0 
L 512 2944 
L 710 2944 
L 710 0 
L 512 0 
z
M 608 3680 
Q 525 3680 467 3744 
Q 410 3808 410 3891 
Q 410 3981 467 4038 
Q 525 4096 608 4096 
Q 698 4096 758 4038 
Q 819 3981 819 3891 
Q 819 3808 758 3744 
Q 698 3680 608 3680 
z
" transform="scale(0.015625)"/>
     <path id="Outfit-Thin-65" d="M 1862 -64 
Q 1421 -64 1072 137 
Q 723 339 521 688 
Q 320 1037 320 1478 
Q 320 1914 515 2259 
Q 710 2605 1052 2806 
Q 1395 3008 1824 3008 
Q 2221 3008 2525 2832 
Q 2829 2656 3001 2342 
Q 3174 2029 3174 1619 
Q 3174 1594 3171 1539 
Q 3168 1485 3155 1402 
L 461 1402 
L 461 1587 
L 3027 1587 
L 2970 1542 
Q 2995 1920 2854 2208 
Q 2714 2496 2448 2659 
Q 2182 2822 1818 2822 
Q 1434 2822 1142 2652 
Q 851 2483 688 2185 
Q 525 1888 525 1491 
Q 525 1082 694 774 
Q 864 467 1171 294 
Q 1478 122 1888 122 
Q 2195 122 2454 237 
Q 2714 352 2893 582 
L 3027 448 
Q 2829 211 2525 73 
Q 2221 -64 1862 -64 
z
" transform="scale(0.015625)"/>
     <path id="Outfit-Thin-72" d="M 512 0 
L 512 2944 
L 710 2944 
L 710 0 
L 512 0 
z
M 710 1798 
L 576 1837 
Q 576 2400 873 2704 
Q 1171 3008 1619 3008 
Q 1837 3008 2025 2931 
Q 2214 2854 2374 2688 
L 2240 2541 
Q 2106 2688 1949 2752 
Q 1792 2816 1587 2816 
Q 1197 2816 953 2550 
Q 710 2285 710 1798 
z
" transform="scale(0.015625)"/>
     <path id="Outfit-Thin-70" d="M 1978 -64 
Q 1645 -64 1366 64 
Q 1088 192 893 425 
Q 698 659 621 973 
L 621 1978 
Q 698 2304 896 2534 
Q 1094 2765 1376 2886 
Q 1658 3008 1978 3008 
Q 2400 3008 2729 2806 
Q 3059 2605 3251 2256 
Q 3443 1907 3443 1466 
Q 3443 1030 3254 684 
Q 3066 339 2733 137 
Q 2400 -64 1978 -64 
z
M 512 -1254 
L 512 2944 
L 710 2944 
L 710 2227 
L 646 1517 
L 710 787 
L 710 -1254 
L 512 -1254 
z
M 1939 122 
Q 2323 122 2614 294 
Q 2906 467 3072 774 
Q 3238 1082 3238 1472 
Q 3238 1869 3072 2173 
Q 2906 2477 2618 2649 
Q 2330 2822 1958 2822 
Q 1587 2822 1305 2649 
Q 1024 2477 864 2173 
Q 704 1869 704 1466 
Q 704 1075 861 771 
Q 1018 467 1296 294 
Q 1574 122 1939 122 
z
" transform="scale(0.015625)"/>
     <path id="Outfit-Thin-6e" d="M 2790 0 
L 2790 1760 
Q 2790 2240 2515 2534 
Q 2240 2829 1779 2829 
Q 1466 2829 1226 2691 
Q 986 2554 848 2317 
Q 710 2080 710 1766 
L 576 1843 
Q 576 2176 739 2438 
Q 902 2701 1180 2854 
Q 1459 3008 1811 3008 
Q 2163 3008 2428 2848 
Q 2694 2688 2841 2406 
Q 2989 2125 2989 1760 
L 2989 0 
L 2790 0 
z
M 512 0 
L 512 2944 
L 710 2944 
L 710 0 
L 512 0 
z
" transform="scale(0.015625)"/>
     <path id="Outfit-Thin-74" d="M 979 0 
L 979 4198 
L 1178 4198 
L 1178 0 
L 979 0 
z
M 198 2771 
L 198 2944 
L 1952 2944 
L 1952 2771 
L 198 2771 
z
" transform="scale(0.015625)"/>
     <path id="Outfit-Thin-6f" d="M 1837 -64 
Q 1408 -64 1065 141 
Q 723 346 521 698 
Q 320 1050 320 1485 
Q 320 1914 521 2259 
Q 723 2605 1065 2806 
Q 1408 3008 1837 3008 
Q 2259 3008 2601 2806 
Q 2944 2605 3145 2259 
Q 3347 1914 3347 1485 
Q 3347 1043 3145 694 
Q 2944 346 2601 141 
Q 2259 -64 1837 -64 
z
M 1837 122 
Q 2208 122 2502 301 
Q 2797 480 2969 790 
Q 3142 1101 3142 1491 
Q 3142 1869 2969 2169 
Q 2797 2470 2502 2646 
Q 2208 2822 1837 2822 
Q 1466 2822 1168 2646 
Q 870 2470 697 2169 
Q 525 1869 525 1485 
Q 525 1094 697 787 
Q 870 480 1168 301 
Q 1466 122 1837 122 
z
" transform="scale(0.015625)"/>
     <path id="Outfit-Thin-66" d="M 979 0 
L 979 3558 
Q 979 3840 1097 4054 
Q 1216 4269 1427 4390 
Q 1638 4512 1907 4512 
Q 2112 4512 2285 4438 
Q 2458 4365 2586 4230 
L 2451 4096 
Q 2330 4224 2192 4278 
Q 2054 4333 1901 4333 
Q 1562 4333 1370 4115 
Q 1178 3898 1178 3533 
L 1178 0 
L 979 0 
z
M 198 2771 
L 198 2944 
L 2266 2944 
L 2266 2771 
L 198 2771 
z
" transform="scale(0.015625)"/>
     <path id="Outfit-Thin-79" d="M 1536 0 
L 205 2944 
L 422 2944 
L 1651 179 
L 1504 179 
L 2790 2944 
L 3008 2944 
L 1613 0 
L 1536 0 
z
M 806 -1254 
L 1510 192 
L 1613 0 
L 1018 -1254 
L 806 -1254 
z
" transform="scale(0.015625)"/>
     <path id="Outfit-Thin-2e" d="M 922 -64 
Q 813 -64 739 16 
Q 666 96 666 198 
Q 666 307 739 380 
Q 813 454 922 454 
Q 1030 454 1104 380 
Q 1178 307 1178 198 
Q 1178 96 1104 16 
Q 1030 -64 922 -64 
z
" transform="scale(0.015625)"/>
    </defs>
    <use xlink:href="#Outfit-Thin-45"/>
    <use xlink:href="#Outfit-Thin-61" x="58.799988"/>
    <use xlink:href="#Outfit-Thin-63" x="117.699982"/>
    <use xlink:href="#Outfit-Thin-68" x="167.199966"/>
    <use xlink:href="#Outfit-Thin-20" x="220.899963"/>
    <use xlink:href="#Outfit-Thin-73" x="243.899948"/>
    <use xlink:href="#Outfit-Thin-6c" x="285.599945"/>
    <use xlink:href="#Outfit-Thin-69" x="304.699936"/>
    <use xlink:href="#Outfit-Thin-63" x="323.899933"/>
    <use xlink:href="#Outfit-Thin-65" x="373.399918"/>
    <use xlink:href="#Outfit-Thin-20" x="427.599915"/>
    <use xlink:href="#Outfit-Thin-72" x="450.599899"/>
    <use xlink:href="#Outfit-Thin-65" x="490.799896"/>
    <use xlink:href="#Outfit-Thin-70" x="544.999893"/>
    <use xlink:href="#Outfit-Thin-72" x="603.899887"/>
    <use xlink:href="#Outfit-Thin-65" x="644.099884"/>
    <use xlink:href="#Outfit-Thin-73" x="698.299881"/>
    <use xlink:href="#Outfit-Thin-65" x="739.999878"/>
    <use xlink:href="#Outfit-Thin-6e" x="794.199875"/>
    <use xlink:href="#Outfit-Thin-74" x="847.899872"/>
    <use xlink:href="#Outfit-Thin-73" x="881.499863"/>
    <use xlink:href="#Outfit-Thin-20" x="923.19986"/>
    <use xlink:href="#Outfit-Thin-74" x="946.199844"/>
    <use xlink:href="#Outfit-Thin-68" x="979.799835"/>
    <use xlink:href="#Outfit-Thin-65" x="1033.499832"/>
    <use xlink:href="#Outfit-Thin-20" x="1087.699829"/>
    <use xlink:href="#Outfit-Thin-70" x="1110.699814"/>
    <use xlink:href="#Outfit-Thin-72" x="1169.599808"/>
    <use xlink:href="#Outfit-Thin-6f" x="1209.799805"/>
    <use xlink:href="#Outfit-Thin-70" x="1267.099792"/>
    <use xlink:href="#Outfit-Thin-6f" x="1325.999786"/>
    <use xlink:href="#Outfit-Thin-72" x="1383.299774"/>
    <use xlink:href="#Outfit-Thin-74" x="1423.499771"/>
    <use xlink:href="#Outfit-Thin-69" x="1457.099762"/>
    <use xlink:href="#Outfit-Thin-6f" x="1476.299759"/>
    <use xlink:href="#Outfit-Thin-6e" x="1533.599747"/>
    <use xlink:href="#Outfit-Thin-20" x="1587.299744"/>
    <use xlink:href="#Outfit-Thin-6f" x="1610.299728"/>
    <use xlink:href="#Outfit-Thin-66" x="1667.599716"/>
    <use xlink:href="#Outfit-Thin-20" x="1706.199707"/>
    <use xlink:href="#Outfit-Thin-61" x="1729.199692"/>
    <use xlink:href="#Outfit-Thin-20" x="1788.099686"/>
    <use xlink:href="#Outfit-Thin-73" x="1811.09967"/>
    <use xlink:href="#Outfit-Thin-70" x="1852.799667"/>
    <use xlink:href="#Outfit-Thin-65" x="1911.699661"/>
    <use xlink:href="#Outfit-Thin-63" x="1965.899658"/>
    <use xlink:href="#Outfit-Thin-69" x="2015.399643"/>
    <use xlink:href="#Outfit-Thin-66" x="2034.59964"/>
    <use xlink:href="#Outfit-Thin-69" x="2073.199631"/>
    <use xlink:href="#Outfit-Thin-63" x="2092.399628"/>
    <use xlink:href="#Outfit-Thin-20" x="2141.899612"/>
    <use xlink:href="#Outfit-Thin-74" x="2164.899597"/>
    <use xlink:href="#Outfit-Thin-72" x="2198.499588"/>
    <use xlink:href="#Outfit-Thin-61" x="2238.699585"/>
    <use xlink:href="#Outfit-Thin-6e" x="2297.599579"/>
    <use xlink:href="#Outfit-Thin-73" x="2351.299576"/>
    <use xlink:href="#Outfit-Thin-61" x="2392.999573"/>
    <use xlink:href="#Outfit-Thin-63" x="2451.899567"/>
    <use xlink:href="#Outfit-Thin-74" x="2501.399551"/>
    <use xlink:href="#Outfit-Thin-69" x="2534.999542"/>
    <use xlink:href="#Outfit-Thin-6f" x="2554.199539"/>
    <use xlink:href="#Outfit-Thin-6e" x="2611.499527"/>
    <use xlink:href="#Outfit-Thin-20" x="2665.199524"/>
    <use xlink:href="#Outfit-Thin-74" x="2688.199509"/>
    <use xlink:href="#Outfit-Thin-79" x="2721.7995"/>
    <use xlink:href="#Outfit-Thin-70" x="2771.999496"/>
    <use xlink:href="#Outfit-Thin-65" x="2830.89949"/>
    <use xlink:href="#Outfit-Thin-2e" x="2885.099487"/>
   </g>
   <!-- Normal, Anomalous, or Fraudulent - within the entire dataset. -->
   <g transform="translate(50.4 64.8) scale(0.12 -0.12)">
    <defs>
     <path id="Outfit-Thin-4e" d="M 634 0 
L 634 4326 
L 787 4326 
L 838 4058 
L 838 0 
L 634 0 
z
M 3622 0 
L 742 4051 
L 787 4326 
L 3667 275 
L 3622 0 
z
M 3622 0 
L 3571 269 
L 3571 4326 
L 3776 4326 
L 3776 0 
L 3622 0 
z
" transform="scale(0.015625)"/>
     <path id="Outfit-Thin-6d" d="M 512 0 
L 512 2944 
L 710 2944 
L 710 0 
L 512 0 
z
M 2611 0 
L 2611 1856 
Q 2611 2291 2355 2560 
Q 2099 2829 1696 2829 
Q 1427 2829 1203 2707 
Q 979 2586 844 2371 
Q 710 2157 710 1869 
L 576 1875 
Q 576 2214 726 2470 
Q 877 2726 1136 2867 
Q 1395 3008 1715 3008 
Q 2029 3008 2275 2867 
Q 2522 2726 2666 2470 
Q 2810 2214 2810 1869 
L 2810 0 
L 2611 0 
z
M 4710 0 
L 4710 1856 
Q 4710 2291 4454 2560 
Q 4198 2829 3795 2829 
Q 3526 2829 3302 2707 
Q 3078 2586 2944 2371 
Q 2810 2157 2810 1869 
L 2675 1875 
Q 2675 2221 2828 2473 
Q 2982 2726 3241 2867 
Q 3501 3008 3814 3008 
Q 4128 3008 4374 2867 
Q 4621 2726 4765 2467 
Q 4909 2208 4909 1862 
L 4909 0 
L 4710 0 
z
" transform="scale(0.015625)"/>
     <path id="Outfit-Thin-2c" d="M 640 -570 
L 934 38 
L 1024 51 
Q 1011 6 972 -22 
Q 934 -51 870 -51 
Q 774 -51 700 19 
Q 627 90 627 192 
Q 627 301 707 377 
Q 787 454 896 454 
Q 998 454 1075 377 
Q 1152 301 1152 192 
Q 1152 147 1142 86 
Q 1133 26 1082 -77 
L 794 -653 
L 640 -570 
z
" transform="scale(0.015625)"/>
     <path id="Outfit-Thin-41" d="M 320 0 
L 2080 4326 
L 2272 4326 
L 4019 0 
L 3795 0 
L 2125 4147 
L 2221 4147 
L 538 0 
L 320 0 
z
M 1056 1427 
L 1056 1613 
L 3290 1613 
L 3290 1427 
L 1056 1427 
z
" transform="scale(0.015625)"/>
     <path id="Outfit-Thin-75" d="M 1638 -64 
Q 1293 -64 1021 99 
Q 749 262 595 553 
Q 442 845 442 1229 
L 442 2944 
L 640 2944 
L 640 1235 
Q 640 909 765 656 
Q 890 403 1117 259 
Q 1344 115 1638 115 
Q 2086 115 2361 428 
Q 2637 742 2637 1235 
L 2637 2944 
L 2835 2944 
L 2835 1229 
Q 2835 851 2681 556 
Q 2528 262 2259 99 
Q 1990 -64 1638 -64 
z
" transform="scale(0.015625)"/>
     <path id="Outfit-Thin-46" d="M 634 0 
L 634 4326 
L 838 4326 
L 838 0 
L 634 0 
z
M 749 2054 
L 749 2240 
L 3187 2240 
L 3187 2054 
L 749 2054 
z
M 749 4141 
L 749 4326 
L 3296 4326 
L 3296 4141 
L 749 4141 
z
" transform="scale(0.015625)"/>
     <path id="Outfit-Thin-64" d="M 1792 -64 
Q 1370 -64 1040 137 
Q 710 339 518 684 
Q 326 1030 326 1466 
Q 326 1907 518 2256 
Q 710 2605 1043 2806 
Q 1376 3008 1792 3008 
Q 2112 3008 2393 2886 
Q 2675 2765 2876 2534 
Q 3078 2304 3149 1978 
L 3149 973 
Q 3072 659 2877 425 
Q 2682 192 2403 64 
Q 2125 -64 1792 -64 
z
M 1830 122 
Q 2195 122 2473 294 
Q 2752 467 2909 771 
Q 3066 1075 3066 1466 
Q 3066 1869 2906 2173 
Q 2746 2477 2464 2649 
Q 2182 2822 1811 2822 
Q 1440 2822 1152 2649 
Q 864 2477 697 2173 
Q 531 1869 531 1472 
Q 531 1082 697 774 
Q 864 467 1158 294 
Q 1453 122 1830 122 
z
M 3258 0 
L 3059 0 
L 3059 787 
L 3123 1517 
L 3059 2227 
L 3059 4454 
L 3258 4454 
L 3258 0 
z
" transform="scale(0.015625)"/>
     <path id="Outfit-Thin-2d" d="M 512 1517 
L 512 1709 
L 2426 1709 
L 2426 1517 
L 512 1517 
z
" transform="scale(0.015625)"/>
     <path id="Outfit-Thin-77" d="M 1299 0 
L 211 2944 
L 422 2944 
L 1414 179 
L 1299 179 
L 2304 2944 
L 2419 2944 
L 3424 179 
L 3309 179 
L 4301 2944 
L 4512 2944 
L 3424 0 
L 3302 0 
L 2285 2803 
L 2438 2803 
L 1421 0 
L 1299 0 
z
" transform="scale(0.015625)"/>
    </defs>
    <use xlink:href="#Outfit-Thin-4e"/>
    <use xlink:href="#Outfit-Thin-6f" x="68.899994"/>
    <use xlink:href="#Outfit-Thin-72" x="126.199982"/>
    <use xlink:href="#Outfit-Thin-6d" x="166.399979"/>
    <use xlink:href="#Outfit-Thin-61" x="250.09996"/>
    <use xlink:href="#Outfit-Thin-6c" x="308.999954"/>
    <use xlink:href="#Outfit-Thin-2c" x="328.099945"/>
    <use xlink:href="#Outfit-Thin-20" x="355.199936"/>
    <use xlink:href="#Outfit-Thin-41" x="378.199921"/>
    <use xlink:href="#Outfit-Thin-6e" x="445.999908"/>
    <use xlink:href="#Outfit-Thin-6f" x="499.699905"/>
    <use xlink:href="#Outfit-Thin-6d" x="556.999893"/>
    <use xlink:href="#Outfit-Thin-61" x="640.699875"/>
    <use xlink:href="#Outfit-Thin-6c" x="699.599869"/>
    <use xlink:href="#Outfit-Thin-6f" x="718.69986"/>
    <use xlink:href="#Outfit-Thin-75" x="775.999847"/>
    <use xlink:href="#Outfit-Thin-73" x="827.199844"/>
    <use xlink:href="#Outfit-Thin-2c" x="868.899841"/>
    <use xlink:href="#Outfit-Thin-20" x="895.999832"/>
    <use xlink:href="#Outfit-Thin-6f" x="918.999817"/>
    <use xlink:href="#Outfit-Thin-72" x="976.299805"/>
    <use xlink:href="#Outfit-Thin-20" x="1016.499802"/>
    <use xlink:href="#Outfit-Thin-46" x="1039.499786"/>
    <use xlink:href="#Outfit-Thin-72" x="1096.199783"/>
    <use xlink:href="#Outfit-Thin-61" x="1136.39978"/>
    <use xlink:href="#Outfit-Thin-75" x="1195.299774"/>
    <use xlink:href="#Outfit-Thin-64" x="1246.499771"/>
    <use xlink:href="#Outfit-Thin-75" x="1305.399765"/>
    <use xlink:href="#Outfit-Thin-6c" x="1356.599762"/>
    <use xlink:href="#Outfit-Thin-65" x="1375.699753"/>
    <use xlink:href="#Outfit-Thin-6e" x="1429.89975"/>
    <use xlink:href="#Outfit-Thin-74" x="1483.599747"/>
    <use xlink:href="#Outfit-Thin-20" x="1517.199738"/>
    <use xlink:href="#Outfit-Thin-2d" x="1540.199722"/>
    <use xlink:href="#Outfit-Thin-20" x="1586.099716"/>
    <use xlink:href="#Outfit-Thin-77" x="1609.099701"/>
    <use xlink:href="#Outfit-Thin-69" x="1682.899689"/>
    <use xlink:href="#Outfit-Thin-74" x="1702.099686"/>
    <use xlink:href="#Outfit-Thin-68" x="1735.699677"/>
    <use xlink:href="#Outfit-Thin-69" x="1789.399673"/>
    <use xlink:href="#Outfit-Thin-6e" x="1808.59967"/>
    <use xlink:href="#Outfit-Thin-20" x="1862.299667"/>
    <use xlink:href="#Outfit-Thin-74" x="1885.299652"/>
    <use xlink:href="#Outfit-Thin-68" x="1918.899643"/>
    <use xlink:href="#Outfit-Thin-65" x="1972.59964"/>
    <use xlink:href="#Outfit-Thin-20" x="2026.799637"/>
    <use xlink:href="#Outfit-Thin-65" x="2049.799622"/>
    <use xlink:href="#Outfit-Thin-6e" x="2103.999619"/>
    <use xlink:href="#Outfit-Thin-74" x="2157.699615"/>
    <use xlink:href="#Outfit-Thin-69" x="2191.299606"/>
    <use xlink:href="#Outfit-Thin-72" x="2210.499603"/>
    <use xlink:href="#Outfit-Thin-65" x="2250.6996"/>
    <use xlink:href="#Outfit-Thin-20" x="2304.899597"/>
    <use xlink:href="#Outfit-Thin-64" x="2327.899582"/>
    <use xlink:href="#Outfit-Thin-61" x="2386.799576"/>
    <use xlink:href="#Outfit-Thin-74" x="2445.69957"/>
    <use xlink:href="#Outfit-Thin-61" x="2479.299561"/>
    <use xlink:href="#Outfit-Thin-73" x="2538.199554"/>
    <use xlink:href="#Outfit-Thin-65" x="2579.899551"/>
    <use xlink:href="#Outfit-Thin-74" x="2634.099548"/>
    <use xlink:href="#Outfit-Thin-2e" x="2667.699539"/>
   </g>
  </g>
 </g>
</svg>
